<?xml version="1.0" encoding="utf-8"?>
<!-- Generator: Adobe Illustrator 16.0.0, SVG Export Plug-In . SVG Version: 6.00 Build 0)  -->
<!DOCTYPE svg PUBLIC "-//W3C//DTD SVG 1.1//EN" "http://www.w3.org/Graphics/SVG/1.1/DTD/svg11.dtd">
<svg version="1.1" id="eqxiu" xmlns="http://www.w3.org/2000/svg" xmlns:xlink="http://www.w3.org/1999/xlink" x="0px" y="0px"
	 width="88.797px" height="95.511px" viewBox="0 0 88.797 95.511" enable-background="new 0 0 88.797 95.511" xml:space="preserve">
<path fill="#FF974F" d="M72.701,23.402c-1.143,4.808-3.926,9.21-7.78,12.303c2.376-2.904,5.466-5.221,8.919-6.687
	c2.299-0.976,5.137-1.516,7.154-0.046c2.861,2.083,2.117,6.596,0.352,9.662c-2.041,3.543-5.048,6.522-8.609,8.53
	c2.851-0.848,5.785-1.706,8.748-1.436c2.961,0.27,5.994,1.937,6.984,4.74c1.524,4.316-2.516,8.848-6.921,10.088
	c-4.403,1.24-9.096,0.377-13.668,0.592c3.647,1.805,7.468,3.762,9.688,7.17c2.224,3.409,2.062,8.727-1.412,10.846
	c-1.691,1.033-3.803,1.119-5.766,0.85c-5.564-0.766-10.68-4.297-13.365-9.229c2.271,7.229,4.021,15.59-0.047,21.982
	c-0.664,1.045-1.521,2.039-2.674,2.488c-1.722,0.672-3.748-0.053-5.062-1.354c-1.313-1.3-2.036-3.074-2.593-4.835
	c-1.633-5.161-2.118-10.683-1.412-16.049c-0.638,6.837-3.57,13.44-8.216,18.498c-2.522,2.747-6.838,5.088-9.745,2.752
	c-2.242-1.802-2.073-5.229-1.472-8.041c1.275-5.958,3.579-11.694,6.778-16.881c-3.849,6.046-10.352,10.334-17.426,11.491
	c-1.573,0.256-3.402,0.285-4.511-0.861c-1.474-1.523-0.756-4.043,0.165-5.952c2.847-5.899,6.821-11.254,11.646-15.687
	c-6.395,3.166-13.581,6.395-20.415,4.346c-0.776-0.232-1.609-0.604-1.921-1.352c-0.449-1.078,0.418-2.224,1.249-3.043
	c4.775-4.72,10.47-8.504,16.669-11.083c-4.562,0.667-9.397-0.874-12.731-4.058c-1.776-1.697-3.115-4.618-1.529-6.494
	c0.659-0.78,1.673-1.155,2.655-1.432c5.163-1.457,10.837-1.021,15.718,1.204C16.398,35,11.557,30.352,9.9,24.661
	c-0.325-1.119-0.533-2.324-0.201-3.441c0.862-2.904,4.722-3.626,7.688-3.005c5.259,1.102,9.891,4.855,12.058,9.772
	c-4.331-6.23-6.104-14.185-4.829-21.665c0.479-2.812,1.962-6.062,4.803-6.31c2.114-0.184,3.933,1.445,5.253,3.106
	c4.566,5.746,6.68,13.378,5.72,20.655c-0.549-6.979,0.744-14.094,3.715-20.433c0.332-0.709,0.712-1.44,1.36-1.879
	c2.131-1.441,4.676,1.243,5.59,3.647c2.202,5.784,0.742,13.185,1.406,19.404c-0.049-0.457,8.01-9.252,8.967-10.382
	c3.11-3.679,8.334-3.712,10.717,0.913C73.454,17.58,73.361,20.627,72.701,23.402z"/>
<path fill="#FFEBB0" d="M51.333,50.505c-0.622,4.515-5.157,8.119-9.696,7.707c-4.539-0.412-8.351-4.774-8.149-9.328
	c0.087-1.968,0.824-3.865,1.857-5.542C41.453,33.427,52.747,40.241,51.333,50.505z"/>
</svg>
