<?xml version="1.0" encoding="utf-8"?>
<!-- Generator: Adobe Illustrator 16.0.0, SVG Export Plug-In . SVG Version: 6.00 Build 0)  -->
<!DOCTYPE svg PUBLIC "-//W3C//DTD SVG 1.1//EN" "http://www.w3.org/Graphics/SVG/1.1/DTD/svg11.dtd">
<svg version="1.1" id="eqxiu.com" xmlns="http://www.w3.org/2000/svg" xmlns:xlink="http://www.w3.org/1999/xlink" x="0px" y="0px"
	 width="33.451px" height="87.037px" viewBox="0 0 33.451 87.037" enable-background="new 0 0 33.451 87.037" xml:space="preserve">
<path id="eqxiu.com_4_" fill-rule="evenodd" clip-rule="evenodd" fill="#A8D4CE" d="M16.609,60.453
	c-1.28,4.93-3.394,9.654-5.853,13.889l-1.339-1.117c6.123-11.582,10.599-30.126,6.712-53.944
	C19.771,23.78,19.279,50.178,16.609,60.453z M15.925,47.143c1.606-4.016,1.809-12.288-13.689-18.416
	C3.637,45.334,11.617,47.521,15.925,47.143z"/>
<path id="eqxiu.com_3_" fill-rule="evenodd" clip-rule="evenodd" fill="#EB96A8" d="M27.089,51.936
	c-1.293-0.035-2.717,0.191-4.219,0.762c-2.201,0.836-4.57,2.414-6.946,5c-1.697-5.645-4.329-8.418-6.793-9.371
	c-0.369-0.143-0.738-0.254-1.105-0.334c-2.603-0.572-5.108,0.361-6.786,2.078c-1.273,1.303-1.718,3.285-0.612,5.229
	c1.007,1.771,3.292,3.559,7.397,4.82c1.21,0.371,2.577,0.695,4.116,0.961c-2.733,2.311-3.676,4.633-4.116,6.846
	c-0.166,0.832-0.26,1.65-0.352,2.445c-0.361,3.131-0.677,5.863-5.157,7.168c-0.887,0.26-1.619,0.744-1.634,1.08
	c-0.016,0.338,0.691,0.4,1.578,0.143c2.605-0.76,4.362-1.646,5.564-2.637c2.307-1.898,2.57-4.178,2.856-6.664
	c0.278-2.412,0.583-5.045,2.879-7.514c1.2,5.088-0.703,8.896-2.421,12.334c-2.104,4.211-3.941,7.885,0.128,12.6
	c0.219,0.258,1.094,0.189,1.953-0.148c0.86-0.34,1.379-0.824,1.16-1.08c-3.883-4.498-2.124-8.02-0.108-12.051
	c1.632-3.266,3.427-6.857,2.718-11.52c2.125,0.352,4.013,0.455,5.678,0.363c3.273-0.18,5.682-1.109,7.319-2.375
	c1.944-1.504,2.402-3.523,1.753-5.158C31.299,53.293,29.556,52.002,27.089,51.936z M8.027,57.623
	c-2.196-1.035-3.54-2.264-4.233-3.484C2.819,52.426,3.109,50.783,4.1,49.77c0.35-0.357,1.154-0.432,2.208-0.023
	c0.568,0.219,1.146,0.545,1.719,0.996c1.819,1.426,3.592,4.086,4.834,8.477C10.923,58.781,9.326,58.236,8.027,57.623z
	 M27.664,60.076c-0.84,0.65-2.37,1.047-4.793,0.92c-1.629-0.086-3.661-0.408-6.159-1.051c2.401-3.316,4.481-5.133,6.159-5.941
	c0.796-0.385,1.502-0.543,2.107-0.527c1.861,0.049,3.23,1.156,3.783,2.547C29.308,57.4,29.048,59.006,27.664,60.076z M32.007,17.397
	c-2.963,1.925-4.471,0.842-5.637,1.081c0.962,0.698,2.792,0.355,4.65,3.364c2.47,3.995-4.049,5.293-4.412,5.611
	c-0.36,0.319-2.426,6.566-6.122,3.668c-2.761-2.164-2.281-3.917-2.868-4.952c-0.368,1.131,0.552,2.756-1.665,5.387
	c-3.025,3.593-6.284-2.219-6.699-2.464c-0.415-0.246-6.955-0.27-5.378-4.693c1.135-3.188,2.921-3.303,3.725-4.182
	c-1.189,0-2.467,1.305-5.537,0.004c-4.324-1.832,0.172-6.662,0.278-7.133c0.105-0.47-1.889-6.749,2.805-6.563
	c3.322,0.131,3.924,1.831,4.996,2.314c-0.36-1.118-1.939-1.96-1.615-5.306c0.454-4.675,6.386-1.908,6.866-1.954
	c0.479-0.045,5.897-3.913,7.111,0.624c0.885,3.309-0.619,4.394-0.752,5.576c0.963-0.699,1.271-2.493,4.676-3.268
	c4.58-1.04,3.786,5.486,3.978,5.928C30.598,10.882,35.945,14.838,32.007,17.397z"/>
<path id="eqxiu.com_2_" fill-rule="evenodd" clip-rule="evenodd" fill="#DC7C8D" d="M26.843,17.034
	c-1.957,1.271-2.953,0.557-3.724,0.715c0.636,0.461,1.845,0.235,3.073,2.223c1.631,2.64-2.676,3.497-2.914,3.708
	c-0.24,0.21-1.605,4.338-4.047,2.423c-1.823-1.43-1.507-2.588-1.895-3.271c-0.243,0.747,0.365,1.82-1.099,3.559
	c-1.999,2.374-4.152-1.466-4.426-1.628c-0.274-0.163-4.595-0.178-3.554-3.102c0.75-2.105,1.931-2.182,2.461-2.762
	c-0.785-0.001-1.63,0.861-3.658,0.002c-2.857-1.211,0.114-4.402,0.184-4.712c0.07-0.312-1.248-4.46,1.853-4.338
	c2.195,0.087,2.592,1.21,3.301,1.53c-0.238-0.739-1.282-1.295-1.067-3.506c0.3-3.088,4.219-1.261,4.536-1.291
	s3.896-2.585,4.698,0.413c0.584,2.185-0.408,2.902-0.496,3.684c0.635-0.463,0.839-1.647,3.09-2.159
	c3.025-0.687,2.5,3.624,2.627,3.917C25.914,12.73,29.446,15.343,26.843,17.034z M16.772,56.926c-0.329-0.16-0.781-0.303-1.165-0.379
	c-1.981-0.396-3.755,0.602-4.077,2.207c-0.159,0.791,0.088,1.586,0.615,2.238c0.543,0.67,1.385,1.186,2.39,1.389
	c0.957,0.191,1.887,0.062,2.629-0.305c0.795-0.391,1.375-1.055,1.541-1.885C18.964,58.896,18.14,57.59,16.772,56.926z"/>
<path id="eqxiu.com_1_" fill-rule="evenodd" clip-rule="evenodd" fill="#F1E5BA" d="M17.366,22.216
	c-3.248,0.309-6.131-2.073-6.44-5.321c-0.309-3.247,2.073-6.131,5.321-6.44c3.248-0.309,6.131,2.074,6.44,5.321
	C22.996,19.024,20.613,21.908,17.366,22.216z"/>
</svg>
