<?xml version="1.0" encoding="utf-8"?>
<!-- Generator: Adobe Illustrator 16.0.0, SVG Export Plug-In . SVG Version: 6.00 Build 0)  -->
<!DOCTYPE svg PUBLIC "-//W3C//DTD SVG 1.1//EN" "http://www.w3.org/Graphics/SVG/1.1/DTD/svg11.dtd">
<svg version="1.1" id="eqxiu" xmlns="http://www.w3.org/2000/svg" xmlns:xlink="http://www.w3.org/1999/xlink" x="0px" y="0px"
	 width="74.328px" height="136.469px" viewBox="0 0 74.328 136.469" enable-background="new 0 0 74.328 136.469"
	 xml:space="preserve">
<path fill="#FFD34E" d="M65.607,54.835c-2.418,1.4-4.856,2.766-7.305,4.113c-1.847,1.056-3.688,2.117-5.511,3.212
	c-3.149,1.893-6.388,4.437-9.922,5.722c-0.712,2.868-1.427,5.735-2.147,8.601c-0.568,2.27-1.148,4.535-1.729,6.801
	c1.729-0.856,3.494-1.656,5.166-2.549c2.699-1.44,5.33-3.008,7.99-4.516c2.541-1.66,5.088-3.298,7.631-4.904
	c3.465-2.189,6.807,3.604,3.193,5.465c-6.062,3.119-12.33,5.865-18.41,8.957c-2.346,1.996-4.826,4.111-7.487,5.297
	c-0.022,0.01-0.046,0.014-0.069,0.023c-1.276,4.954-2.562,9.907-3.887,14.853c-0.627,2.343-1.211,4.739-1.793,7.147
	c2.688-2.641,5.605-5.067,8.544-7.396c3.929-3.113,8.038-6.896,12.522-9.116c1.396-0.691,2.649-0.334,3.449,0.473
	c1.508,0.809,2.172,3.223,0.232,4.109c-0.084,0.039-0.163,0.082-0.247,0.121c-0.138,0.136-0.285,0.268-0.458,0.391
	c-4.225,2.998-9.194,5.096-13.579,7.936c-1.106,0.717-2.199,1.453-3.286,2.199c-2.848,2.084-5.646,4.252-8.44,6.455
	c-1.418,5.718-2.982,11.412-5.253,16.681c-1.445,3.354-5.845,0.692-5.391-2.272c0.746-4.865,2.092-9.742,3.601-14.593
	c0.138-0.608,0.289-1.217,0.436-1.823c-0.952-0.201-1.847-0.851-2.354-2.102c-0.86-2.122-1.678-4.266-2.474-6.42
	c-1.117-1.979-2.156-3.999-3.185-5.94c-2.319-4.381-5.801-9.368-6.894-14.233c-0.345-1.533,0.245-2.938,1.55-3.809
	c0.164-0.109,0.326-0.218,0.49-0.326c2.064-1.377,4.328,0.5,4.525,2.598c0.289,3.078,2.018,6.65,3.577,9.91
	c2.35,4.299,4.665,8.615,6.829,12.99c2.061-6.634,4.425-13.215,5.849-20.025c0.133-0.635,0.261-1.268,0.39-1.902
	c-3.145-3.877-5.88-7.972-8.387-12.33c-2.869-4.988-6.432-10.236-7.996-15.801c-0.979-3.479,3.739-5.172,5.604-2.363
	c3.219,4.847,5.091,10.934,7.63,16.191c1.463,3.027,2.861,6.064,4.191,9.134c1.279-6.462,2.512-12.912,3.955-19.352
	c-1.904-3.845-3.818-7.664-5.477-11.624c-0.501-1.194-0.971-2.395-1.462-3.578c-1.639-2.675-3.249-5.363-4.882-8.014
	c-1.799-2.92,2.25-5.805,4.615-3.562c5.784,5.486,7.897,14.129,11.476,21.284c1.451-5.109,2.919-10.214,4.402-15.313
	c-0.191-0.265-0.361-0.554-0.475-0.889c-0.57-1.701-1.206-3.353-1.885-4.975c-3.43-4.756-5.837-11.059-8.331-15.714
	c-1.743-3.254,2.718-5.642,4.829-2.822c3.506,4.685,6.271,9.928,8.533,15.354c0.233-0.783,0.476-1.565,0.711-2.349
	c0.605-5.648,1.572-11.266,1.516-16.971c-0.053-5.321,8.824-3.557,6.297,1.705c-2.495,5.195-3.766,10.778-5.279,16.293
	c-0.268,1.271-0.521,2.546-0.793,3.815c3.732-2.099,7.483-4.214,11.387-5.89c3.242-1.392,5.898,2.804,2.82,4.823
	c-4.896,3.213-10.34,5.721-15.506,8.479c-0.119,0.064-0.242,0.101-0.365,0.148c-1.215,5.378-2.481,10.744-3.781,16.103
	c1.158-0.717,2.328-1.403,3.453-2.092c4.449-2.724,8.972-5.301,13.609-7.688C66.055,46.968,69.418,52.63,65.607,54.835z"/>
<path fill="#FFB03B" d="M61.723,11.815c-0.554,1.526-1.791,2.684-3.258,3.328c-0.227,0.19-0.48,0.351-0.734,0.514
	c-1.299,1.093-2.836,1.823-4.455,1.867c-2.93,0.079-4.817-1.765-5.7-4.157c-2.246-2.458-3.164-6.157-1.056-9.518
	c2.096-3.339,6.492-4.818,10.111-3.178c2.436,1.104,4.146,3.297,4.684,5.81C62.096,8.168,62.365,10.047,61.723,11.815z"/>
<path fill="#FFB03B" d="M39.296,21.083c-0.69,1.669-1.868,3.073-3.663,3.646c-3.163,1.011-6.456-1.01-7.939-3.787
	c-1.419-2.656-1.442-6.05,0.262-8.557c1.087-2.511,3.269-4.427,6.304-4.082c0.184,0.021,0.358,0.058,0.533,0.095
	c0.604-0.021,1.229,0.081,1.859,0.332c1.644,0.532,3.1,1.733,3.913,3.516C41.807,14.97,41.264,18.696,39.296,21.083z"/>
<path fill="#FFB03B" d="M71.441,36.354c-3.512,2.785-8.936,2.174-11.051-2.148c-0.613-1.251-0.758-2.527-0.539-3.709
	c0.113-1.617,0.711-3.299,1.643-4.732c0.646-1.839,2.029-3.255,4.35-3.499c0.016-0.002,0.03-0.001,0.045-0.003
	c1.283-0.357,2.682-0.271,4.105,0.457c3.955,2.023,5.428,7.219,3.529,11.062C73.086,34.819,72.379,35.731,71.441,36.354z"/>
<path fill="#FFB03B" d="M72.758,58.992c-1.996,2.467-5.24,3.198-8.203,2.562c-0.979-0.068-1.939-0.374-2.812-0.961
	c-1.267-0.133-2.511-1.062-2.554-2.399c-0.479-0.652-0.862-1.379-1.108-2.187c-0.878-2.881,0.138-5.912,2.162-7.583
	c1.544-2.968,4.167-5.195,7.348-4.857C73.713,44.217,76.225,54.711,72.758,58.992z"/>
<path fill="#FFB03B" d="M65.76,80.609c-0.059,0.056-0.113,0.113-0.175,0.168c-1.2,1.041-2.704,1.602-4.228,1.688
	c-1.346,0.296-2.805,0.095-4.14-0.723c-0.771-0.474-1.405-1.183-1.899-2.03c-0.775-0.852-1.383-1.868-1.734-2.995
	c-1.121-3.588,0.145-8.228,3.708-9.92c0.26-0.123,0.524-0.219,0.792-0.3c0.958-0.619,2.093-0.991,3.395-0.983
	c4.176,0.025,6.903,4.303,7.141,8.103c0.109,1.78-0.368,3.545-1.29,5.019C66.941,79.398,66.41,80.07,65.76,80.609z"/>
<path fill="#FFB03B" d="M63.156,98.552c-0.342,1.347-1.098,2.552-2.104,3.56c-0.36,1.33-1.065,2.562-2.146,3.537
	c-2.969,2.683-7.418,1.91-9.915-0.991c-0.604-0.702-1.07-1.493-1.401-2.335c-0.359-0.607-0.641-1.313-0.82-2.129
	c-1.203-5.437,3.447-10.07,8.142-9.782c0.776-0.054,1.563-0.022,2.336,0.135C60.843,91.273,64.139,94.658,63.156,98.552z"/>
<path fill="#FFB03B" d="M8.726,93.131c-3.367,0.663-6.875-0.613-8.297-4.925c-1.275-3.87,0.375-8.894,3.873-11.084
	c2.219-1.392,4.671-1.365,6.83-0.44c1.942-0.021,3.923,0.656,5.588,2.286C22.749,84.871,16.558,95.443,8.726,93.131z"/>
<path fill="#FFB03B" d="M25.763,58.196c-0.285,1.688-1.093,2.968-2.182,3.857c-0.654,0.917-1.514,1.664-2.567,2.146
	c-1.412,1.2-3.296,1.819-5.185,1.41c-0.477-0.104-0.898-0.281-1.294-0.487c-0.084,0.027-0.163,0.065-0.249,0.09
	c-2.943,0.846-6.043-0.513-6.938-3.548c-0.407-1.382-0.341-2.867-0.006-4.296c-0.104-0.891-0.073-1.823,0.163-2.785
	c1.105-4.507,5.846-8.308,9.717-6.497C21.859,47.769,26.554,53.503,25.763,58.196z"/>
<path fill="#FFB03B" d="M32.651,39.727c-0.148,0.208-0.314,0.403-0.485,0.594c-0.45,1.459-1.478,2.671-3.265,3.268
	c-3.154,1.052-6.834-0.228-8.98-2.713c-1.099-1.104-1.859-2.557-2.015-4.232c-0.481-5.205,4.386-9.332,9.43-8.252
	C32.238,29.439,35.854,35.245,32.651,39.727z"/>
</svg>
