<?xml version="1.0" encoding="utf-8"?>
<!-- Generator: Adobe Illustrator 16.0.0, SVG Export Plug-In . SVG Version: 6.00 Build 0)  -->
<!DOCTYPE svg PUBLIC "-//W3C//DTD SVG 1.1//EN" "http://www.w3.org/Graphics/SVG/1.1/DTD/svg11.dtd">
<svg version="1.1" id="eqxiu.com" xmlns="http://www.w3.org/2000/svg" xmlns:xlink="http://www.w3.org/1999/xlink" x="0px" y="0px"
	 width="102.89px" height="105.435px" viewBox="0 0 102.89 105.435" enable-background="new 0 0 102.89 105.435"
	 xml:space="preserve">
<path id="eqxiu.com_9_" fill="#61BA5D" d="M10.696,70.299c0.016,0.706,0.279,1.402,0.771,1.921c0,0.001,0.001,0.001,0.002,0.002
	c-0.015,0.127,0.092,0.271,0.244,0.223c1.065-0.336,1.621-1.46,1.873-2.475c0.3-1.209,0.208-2.477-0.257-3.631
	c-0.142-0.352-0.617-0.218-0.563,0.155c0.109,0.751-0.751,1.244-1.205,1.691c-0.363,0.358-0.636,0.786-0.768,1.281
	c-0.034,0.13-0.059,0.262-0.076,0.394c-0.012-0.017-0.027-0.032-0.044-0.045c-0.01-0.021-0.022-0.041-0.039-0.062
	c-0.646-0.812-1.638-1.312-2.671-1.381c-0.645-0.043-1.288,0.108-1.908,0.267c-0.69,0.177-1.379,0.359-2.07,0.537
	c-0.266,0.068-0.291,0.511,0,0.563c0.742,0.134,1.353,0.452,1.973,0.869c0.56,0.377,1.113,0.685,1.802,0.723
	c0.694,0.039,1.397-0.176,2.024-0.456C10.083,70.744,10.532,70.593,10.696,70.299z M15.93,78.951
	c-0.361,0.932-1.19,1.496-2.185,1.572c-0.532,0.041-1.026-0.107-1.494-0.351c-0.32-0.165-0.619-0.365-0.954-0.499
	c-0.346-0.139-0.711-0.219-1.073-0.302c-0.234-0.054-0.334-0.394-0.147-0.556c1.504-1.302,3.82-1.443,5.441-0.265
	c0.062,0.045,0.102,0.102,0.123,0.162C15.792,78.653,16.002,78.763,15.93,78.951z M25.928,78.756
	c-0.214-0.123-0.574,0.09-0.462,0.355c0.272,0.646,0.167,1.309,0.074,1.981c-0.092,0.663-0.132,1.317-0.066,1.985
	c0.077,0.784,0.225,2.048,1.072,2.383c0.002,0.126,0.075,0.251,0.241,0.306c0.805,0.268,1.378-0.466,1.58-1.153
	c0.213-0.73,0.224-1.509,0.09-2.253C28.187,80.856,27.25,79.52,25.928,78.756z M41.147,86.242c0.167,0.396,0.213,0.784,0.067,1.198
	c-0.096,0.275-0.259,0.522-0.366,0.793c-0.235,0.599-0.139,1.208,0.096,1.791c0.408,1.011,1.102,2.044,2.214,2.328
	c0.123,0.032,0.229-0.007,0.3-0.08c0.089,0.007,0.185-0.036,0.226-0.142c0.899-2.317-0.397-4.588-2.042-6.178
	C41.448,85.765,41.026,85.953,41.147,86.242z M67.454,94.101c0.025-0.683-0.544-1.245-1.118-1.57c-0.7-0.396-1.524-0.51-2.304-0.321
	c-0.269,0.065-0.282,0.421-0.073,0.559c0.43,0.284,0.385,0.719,0.625,1.125c0.185,0.312,0.47,0.565,0.801,0.712
	c0.283,0.126,0.682,0.178,1.045,0.116c-0.546,0.68-0.797,1.644-0.77,2.477c0.018,0.526,0.14,1.038,0.365,1.514
	c0.274,0.577,0.926,1.194,0.755,1.88c-0.079,0.322,0.355,0.634,0.596,0.347c1.521-1.814,1.898-4.982,0.136-6.797
	C67.493,94.123,67.473,94.11,67.454,94.101z M67.091,87.703c-0.263,0.165-0.189,0.691,0.174,0.644
	c0.763-0.101,1.37,0.196,1.83,0.796c0.343,0.446,0.639,0.909,1.182,1.134c0.832,0.346,1.635,0.071,2.33-0.394
	c0.121-0.048,0.239-0.104,0.355-0.17c0.1-0.057,0.149-0.138,0.164-0.225c0.104-0.088,0.206-0.179,0.303-0.27
	c0.153,0.178,0.435,0.007,0.327-0.219C72.542,86.441,69.246,86.344,67.091,87.703z M85.209,73.567
	c0.049,0.109-0.007,0.207-0.088,0.243c-0.046,0.113-0.127,0.224-0.239,0.317c-0.819,0.686-2.096,0.94-3.135,0.858
	c-0.55-0.043-1.071-0.18-1.577-0.396c-0.586-0.249-1.204-0.622-1.854-0.402c-0.382,0.129-0.572-0.423-0.263-0.622
	c1.257-0.808,2.62-1.668,4.165-1.691c1.145-0.018,2.281,0.449,2.861,1.444c0.004,0.007,0.008,0.014,0.012,0.021
	C85.134,73.413,85.173,73.488,85.209,73.567z M75.704,89.066c0.254,0.408,0.381,0.901,0.322,1.381
	c-0.112,0.922-0.886,1.647-1.809,1.695c-0.247,0.013-0.416-0.291-0.285-0.497c0.554-0.87-0.987-3.174,0.688-3.483
	c0.049-0.01,0.095,0.01,0.125,0.043C75.145,88.313,75.498,88.734,75.704,89.066z M86.37,72.086
	c-0.062-0.019-0.129-0.014-0.188,0.027c-0.565,0.384-0.477,1.377-0.23,1.924c0.149,0.331,0.383,0.585,0.659,0.816
	c0.307,0.257,0.667,0.484,0.737,0.904c0.062,0.375,0.611,0.258,0.631-0.085c0.054-0.916,0.305-2.101-0.151-2.952
	C87.578,72.254,86.872,71.813,86.37,72.086z M14.815,55.425c-0.056-0.238-0.407-0.282-0.524-0.068
	c-0.218,0.401-0.647,0.547-1.031,0.749c-0.378,0.199-0.706,0.447-0.963,0.791c-0.441,0.587-0.759,1.585-0.391,2.278
	c0.001,0.001,0.002,0.003,0.003,0.005c-0.004,0.071,0.033,0.142,0.123,0.161C14.078,59.792,15.206,57.081,14.815,55.425z
	 M10.841,58.636c-0.783-0.381-1.683-0.288-2.489-0.042c-0.238,0.072-0.304,0.419-0.071,0.546c0.821,0.448,1.224,1.408,2.097,1.79
	c0.627,0.274,1.394,0.112,1.667-0.558c0.021-0.052,0.007-0.097-0.023-0.13C11.947,59.534,11.478,58.945,10.841,58.636z
	 M5.517,40.311c0.853,0.323,1.164,1.39,1.834,1.951c0.732,0.613,1.733,0.747,2.6,0.354c0.056-0.025,0.088-0.064,0.104-0.107
	c0.014,0.003,0.029,0.007,0.043,0.008c0.889,0.088,1.793-0.816,2.12-1.562c0.211-0.483,0.285-1.016,0.284-1.541
	c-0.001-0.435,0.034-1.049-0.3-1.375c-0.196-0.191-0.48-0.038-0.504,0.209c-0.086,0.87-1.078,1.299-1.537,1.954
	c-0.183,0.26-0.324,0.565-0.404,0.884c-0.81-1.491-2.69-2.124-4.314-1.35C5.173,39.864,5.289,40.224,5.517,40.311z M9.142,29.927
	c0.321,0.611,0.948,1.051,1.637,1.115c0.076,0.007,0.126-0.026,0.152-0.076c0.056,0.02,0.119,0.023,0.174,0.011
	c0.379-0.082,0.361-0.601,0.341-0.903c-0.029-0.442-0.176-0.877-0.412-1.252c-0.529-0.84-1.451-1.322-2.411-1.479
	c-0.272-0.044-0.551,0.289-0.298,0.512C8.903,28.368,8.798,29.274,9.142,29.927z M21.244,19.955
	c-0.712,0.438-1.599-0.467-2.35-0.499c-0.576-0.024-1.125,0.209-1.507,0.624c-0.129-0.054-0.277,0.009-0.327,0.154
	c-0.166,0.481,0.311,1.06,0.669,1.337c0.49,0.38,1.114,0.493,1.722,0.433c1-0.1,2.186-0.65,2.254-1.784
	C21.72,19.987,21.435,19.838,21.244,19.955z M15.105,22.81c0.023-0.009,0.042-0.021,0.06-0.034c0.12,0.03,0.261-0.061,0.303-0.178
	c0.128-0.361-0.092-0.807-0.243-1.135c-0.181-0.391-0.431-0.75-0.724-1.064c-0.59-0.631-1.38-1.067-2.229-1.219
	c-0.188-0.034-0.399,0.082-0.391,0.298c0.038,0.975,0.108,2.082,0.843,2.812C13.344,22.906,14.288,23.128,15.105,22.81z
	 M32.179,22.167c-0.829-0.048-1.396-0.838-2.168-1.082c-0.378-0.119-0.765-0.141-1.135-0.076c0.382-0.496,0.622-1.109,0.586-1.742
	c-0.047-0.836-0.51-1.556-0.96-2.234c-0.113-0.17-0.417-0.219-0.518,0c-0.414,0.901-0.95,1.833-1.206,2.794
	c-0.179,0.674-0.073,1.5,0.614,1.836c0.062,0.03,0.126,0.022,0.179-0.005c-0.256,0.913,0.979,1.802,1.734,1.993
	c1.144,0.289,2.265-0.186,3.081-0.985C32.574,22.48,32.423,22.182,32.179,22.167z M37.998,9.988
	c-0.314,1.182-1.19,2.309-0.767,3.584c0.123,0.372,0.422,0.84,0.835,0.931c0.146,0.032,0.304,0,0.41-0.078
	c0.262,0.009,0.513-0.24,0.675-0.439c0.276-0.341,0.416-0.771,0.456-1.204c0.102-1.081-0.512-2.002-1.078-2.863
	C38.396,9.715,38.064,9.736,37.998,9.988z M38.182,13.937 M42.63,11.658c-0.837,0.069-0.934,1.25-0.394,1.768
	c0.945,0.905,2.215,0.066,3.306,0.282c0.289,0.057,0.483-0.214,0.364-0.473C45.37,12.071,43.928,10.973,42.63,11.658z M55.891,7.426
	c-0.278-0.191-0.673-0.319-1.055-0.327c0.062-0.044,0.121-0.086,0.174-0.125c0.803-0.58,1.378-1.528,1.067-2.535
	c-0.062-0.2-0.357-0.322-0.51-0.134c-0.263,0.323-0.661,0.375-1.037,0.498c-0.339,0.109-0.665,0.266-0.933,0.505
	c-0.567,0.507-0.749,1.258-0.441,1.953c0.011,0.023,0.024,0.042,0.04,0.055c0.056,0.182,0.24,0.318,0.468,0.315
	c0.013,0,0.026-0.001,0.039-0.002c-0.02,0.136-0.014,0.277,0.009,0.399c0.093,0.496,0.377,0.976,0.736,1.326
	c0.831,0.809,2.048,0.936,3.075,0.443c0.184-0.088,0.203-0.367,0.063-0.499C56.977,8.719,56.594,7.909,55.891,7.426z M69.787,8.977
	c0.942-0.179,1.657-0.869,2.008-1.738c0.099-0.245-0.178-0.407-0.379-0.378c-0.956,0.135-1.947-0.356-2.877,0.043
	c-0.561,0.241-0.982,0.816-0.821,1.412C67.763,9.021,69.314,9.066,69.787,8.977z M75.839,17.233
	c-1.032-0.317-2.462-0.146-2.958,0.961c-0.008,0.018-0.013,0.036-0.018,0.054c-0.035,0.007-0.068,0.021-0.097,0.043
	c-0.632,0.491-1.021,1.307-0.892,2.107c0.123,0.765,0.812,1.512,0.591,2.307c-0.064,0.233,0.167,0.499,0.413,0.412
	c0.875-0.307,1.447-1.108,1.545-2.023c0.056-0.516-0.042-1.041-0.23-1.522c-0.053-0.135-0.115-0.293-0.189-0.454
	c0.348,0.167,0.72,0.28,1.114,0.325c0.599,0.068,1.643-0.3,2.097,0.189c0.195,0.209,0.585,0.051,0.573-0.237
	C77.743,18.298,76.831,17.538,75.839,17.233z M85.751,26.93c-0.839,0.447-1.886,0.391-2.786,0.189
	c-0.186-0.042-0.296-0.268-0.242-0.444c-0.033-0.036-0.057-0.084-0.062-0.147c-0.058-0.684,0.355-1.336,1.004-1.573
	c0.837-0.305,2.032,0.466,2.73-0.173c0.202-0.185,0.527-0.055,0.536,0.222C86.958,25.818,86.461,26.552,85.751,26.93z M92.64,35.321
	c-0.487,0.034-1.039,0.342-1.357,0.707c-0.756,0.867-0.024,2.05-0.584,2.942c-0.157,0.25,0.104,0.602,0.392,0.509
	c0.883-0.286,1.843-0.68,2.331-1.523c0.314-0.542,0.497-1.599-0.02-2.094C93.376,35.491,93.001,35.295,92.64,35.321z M97.97,42.202
	c0.7,0.175,1.598,0.023,2.161,0.551c0.186,0.174,0.449,0.084,0.533-0.141c0.38-1.017-1.069-2.119-1.854-2.467
	c-0.709-0.314-2.354-0.676-2.588,0.436c-0.026,0.128,0.032,0.243,0.121,0.315C96.672,41.548,97.26,42.024,97.97,42.202z
	 M101.367,51.317c-0.408-0.54-1.015-0.917-1.689-1.006c-0.247-0.033-0.502-0.04-0.718,0.087c-0.468-0.464-1.21-0.416-1.738-0.013
	c-0.798,0.609-0.906,1.742-1.693,2.34c-0.233,0.178-0.209,0.513,0.081,0.617c1.364,0.486,2.779-0.227,3.294-1.441
	c0.518,0.911,1.887,1.577,1.795,2.675c-0.021,0.253,0.289,0.396,0.488,0.281C102.408,54.152,102.084,52.268,101.367,51.317z
	 M98.04,60.678c0.114-0.026,0.197-0.152,0.131-0.289c-0.379-0.794-1.452-0.994-2.171-0.553c-0.694,0.424-1.046,1.48-1.891,1.62
	c-0.328,0.054-0.289,0.475-0.082,0.631c0.728,0.548,1.717,0.689,2.559,0.326C97.255,62.124,97.935,61.435,98.04,60.678z
	 M98.772,67.916c-0.183,0.271-0.617,0.174-0.625-0.17c-0.022-1.03-1.432-1.408-1.79-2.314c-0.235-0.594-0.042-1.405,0.652-1.547
	c0.088-0.018,0.161,0.03,0.193,0.096C98.981,64.28,99.755,66.451,98.772,67.916z"/>
<path id="eqxiu.com_8_" fill="#7D4E24" d="M46.356,94.195c-3.078-1.614-6.179-3.148-9.355-4.531
	c-1.227,0.989-2.891,1.509-4.421,1.675c-1.782,0.193-3.556-0.128-5.158-0.93c-0.163-0.082-0.02-0.313,0.141-0.242
	c1.539,0.688,3.271,0.938,4.947,0.775c1.535-0.148,2.869-0.691,4.187-1.409c-1.318-0.569-2.649-1.113-3.997-1.624
	c-3.752-1.422-7.64-2.568-11.19-4.47c-3.413-1.826-6.204-4.42-8.308-7.666c-1.659-2.558-2.881-5.377-3.84-8.271
	c-3.385-1.119-6.147-4.538-6.325-8.119c-0.007-0.145,0.228-0.177,0.252-0.034c0.315,1.789,0.976,3.478,2.12,4.903
	c1.029,1.282,2.358,2.274,3.852,2.942c-0.215-0.665-0.418-1.333-0.608-2.004c-0.613-2.158-1.104-4.351-1.47-6.564
	c-0.358-2.164-0.709-4.411-0.532-6.607c0.013-0.161,0.265-0.22,0.3-0.041c0.468,2.417,0.61,4.888,1.048,7.314
	c0.437,2.417,1.021,4.808,1.753,7.151c1.117,3.574,2.622,7.074,4.834,10.115c1.104,1.519,2.394,2.908,3.86,4.084
	c0.678,0.543,1.393,1.036,2.133,1.488c-0.052-0.66-0.082-1.321-0.178-1.979c-0.11-0.752-0.26-1.498-0.449-2.233
	c-0.403-1.568-1-3.074-1.712-4.526c-0.061-0.124,0.117-0.231,0.187-0.109c0.816,1.425,1.414,2.964,1.822,4.554
	c0.363,1.411,0.672,2.99,0.623,4.472c0.853,0.506,1.736,0.959,2.633,1.375c3.682,1.706,7.604,2.843,11.367,4.352
	c4.036,1.618,8.04,3.436,11.819,5.591C47.062,93.836,46.732,94.392,46.356,94.195z M10.557,50.419
	c0.618,4.577,1.584,9.256,0.946,13.882c-0.03,0.216,0.285,0.318,0.337,0.093c0.866-3.781,0.219-7.678-0.291-11.465
	c1.572-2.454,2.316-5.571,1.947-8.459c-0.014-0.11-0.183-0.118-0.178,0c0.062,1.517-0.024,3.032-0.384,4.512
	c-0.311,1.276-0.806,2.499-1.425,3.656c-0.262-1.97-0.515-3.942-0.757-5.915c-0.241-1.955-0.51-3.912-0.635-5.879
	c-0.122-1.912-0.027-3.807,0.27-5.672c3.26-1.341,6.04-4.541,6.722-8.015c0.022-0.113-0.133-0.156-0.171-0.047
	c-0.612,1.737-1.414,3.356-2.627,4.756c-1.093,1.262-2.426,2.278-3.885,3.079c0.288-1.708,0.745-3.39,1.366-5.034
	c1.186-3.132,2.883-6.151,5.111-8.663c2.321-2.617,5.241-4.706,8.695-5.459c0.395-0.086,0.227-0.683-0.167-0.604
	c-3.873,0.776-7.051,3.139-9.53,6.137c0.134-0.934,0.522-1.878,0.877-2.705c0.229-0.535,0.493-1.053,0.786-1.556
	c0.295-0.507,0.666-0.978,0.935-1.499c0.072-0.14-0.102-0.28-0.22-0.169c-0.869,0.811-1.443,2.089-1.89,3.17
	c-0.39,0.942-0.796,2.056-0.776,3.114c-1.496,1.879-2.725,3.985-3.687,6.094c-1.521,3.335-2.488,6.949-2.571,10.626
	c-0.046,2.05,0.183,4.094,0.436,6.125C10.034,46.49,10.292,48.455,10.557,50.419z M30.016,20.623
	c1.104-0.691,2.187-1.416,3.26-2.155c2.534,0.679,5.398,0.324,7.659-1.011c0.169-0.1,0.021-0.343-0.152-0.261
	c-2.289,1.081-4.734,1.461-7.218,1.071c0.525-0.363,1.049-0.729,1.571-1.096c3.368-2.366,6.727-4.792,10.419-6.636
	c4.036-2.015,8.43-3.127,12.952-3.101c1.23,0.007,2.459,0.098,3.674,0.268c-0.271,0.473-0.05,1.151,0.044,1.647
	c0.176,0.929,0.391,1.847,0.729,2.731c0.535,1.4,1.398,2.784,2.725,3.55c0.14,0.081,0.314-0.125,0.179-0.232
	c-1.093-0.857-1.885-1.943-2.419-3.222c-0.296-0.708-0.507-1.449-0.695-2.192c-0.095-0.377-0.178-0.757-0.263-1.137
	c-0.082-0.364-0.221-0.754-0.066-1.112c3.117,0.464,6.148,1.46,8.929,2.964c1.977,1.069,3.822,2.374,5.486,3.885
	c1.709,1.552,3.156,3.319,4.51,5.184c0.226,0.311,0.733,0.036,0.526-0.308c-1.457-2.426-3.45-4.576-5.686-6.377
	c1.374,0.2,2.715,0.433,4.047,0.875c1.547,0.512,2.965,1.265,4.355,2.103c0.172,0.104,0.307-0.149,0.153-0.264
	c-1.298-0.968-2.802-1.667-4.335-2.178c-1.444-0.481-3.036-0.831-4.572-0.815c-0.857-0.67-1.748-1.29-2.655-1.854
	c-3.736-2.324-7.991-3.729-12.374-4.112c-4.618-0.404-9.284,0.348-13.553,2.149c-0.64,0.27-1.268,0.561-1.888,0.868
	c0.321-1.507,1.484-2.908,2.573-3.921c0.579-0.539,1.216-1.011,1.898-1.408c0.699-0.407,1.476-0.624,2.181-1.005
	c0.109-0.059,0.066-0.261-0.067-0.246c-0.792,0.092-1.61,0.555-2.288,0.953c-0.745,0.438-1.438,0.965-2.061,1.564
	c-0.605,0.583-1.141,1.238-1.592,1.946c-0.414,0.648-0.878,1.435-0.884,2.234c-3.04,1.529-5.867,3.455-8.648,5.41
	c-1.966,1.382-3.919,2.785-5.937,4.093c-0.983,0.638-1.982,1.251-2.998,1.836c-1.055,0.607-2.152,1.137-3.175,1.795
	c-0.163,0.104-0.062,0.375,0.135,0.319 M98.209,44.483c-1.374-4.39-3.83-8.29-7.046-11.562c-0.031-0.032-0.063-0.063-0.096-0.095
	c2.618,0.505,5.019,1.602,7.021,3.404c0.108,0.098,0.264-0.055,0.161-0.162c-1.907-2.003-4.62-3.333-7.396-3.454
	c-2.974-2.958-6.395-5.419-9.741-7.933c-3.898-2.928-7.604-6.024-10.756-9.764c-0.145-0.171-0.431,0.052-0.31,0.239
	c2.286,3.539,5.611,6.263,8.917,8.81c1.526,1.175,3.081,2.316,4.619,3.479c0.032,3.157,1.374,6.412,3.421,8.774
	c0.087,0.101,0.268-0.035,0.187-0.145c-0.968-1.317-1.772-2.732-2.358-4.261c-0.519-1.356-0.805-2.748-0.993-4.175
	c1.755,1.332,3.483,2.697,5.114,4.18c3.346,3.042,6.134,6.607,7.824,10.831c0.245,0.612,0.467,1.233,0.667,1.86
	c-3.172,1.774-5.25,5.329-5.635,8.893c-0.017,0.148,0.239,0.184,0.262,0.035c0.553-3.584,2.578-6.575,5.436-8.733
	c1.176,3.775,1.54,7.798,0.979,11.718c-0.738,5.172-2.986,10.008-6.354,13.988c-0.278,0.328,0.186,0.806,0.479,0.479
	C98.956,63.801,101.04,53.527,98.209,44.483z M92.7,63.065c-1.773,1.213-3.022,3.05-4.223,4.795
	c-1.335,1.939-2.597,3.926-3.854,5.915c-2.468,3.904-4.921,7.846-7.868,11.414c-2.592,3.139-5.566,6.019-9.046,8.159
	c-1.122,0.689-2.283,1.273-3.477,1.766c-0.281-0.505-0.885-0.88-1.324-1.193c-0.732-0.521-1.522-0.957-2.353-1.3
	c-1.674-0.691-3.493-1.02-5.3-0.84c-0.142,0.015-0.148,0.227,0,0.226c1.631-0.009,3.262,0.222,4.797,0.785
	c0.769,0.281,1.511,0.642,2.208,1.071c0.334,0.206,0.657,0.429,0.97,0.666c0.249,0.189,0.576,0.403,0.801,0.667
	c-2.911,1.17-6.008,1.797-9.181,2.064c-2.512,0.211-5.05,0.225-7.555-0.074c-2.539-0.302-4.913-1.044-7.317-1.876
	c-0.228-0.079-0.364,0.266-0.162,0.384c1.939,1.131,4.229,1.702,6.432,2.048c2.233,0.351,4.498,0.446,6.755,0.352
	c0.172-0.008,0.343-0.016,0.515-0.024c-0.679,1.062-1.426,1.938-2.556,2.577c-1.175,0.663-2.425,0.905-3.761,0.916
	c-0.056,0-0.072,0.089-0.014,0.1c2.557,0.494,5.741-1.184,6.735-3.616c4.275-0.26,8.544-1.104,12.375-3.075
	c7.472-3.847,12.538-10.821,16.981-17.739c0.059,0.661,0.137,1.318,0.147,1.986c0.013,0.832-0.038,1.668-0.149,2.492
	c-0.229,1.702-0.753,3.343-1.446,4.91c-0.068,0.153,0.147,0.29,0.23,0.135c0.808-1.511,1.3-3.171,1.532-4.866
	c0.216-1.578,0.283-3.366-0.137-4.934c0.146-0.229,0.292-0.458,0.438-0.687c1.443-2.27,2.86-4.557,4.353-6.794
	c1.423-2.132,2.856-4.253,4.838-5.91C93.359,63.334,92.998,62.862,92.7,63.065z"/>
<path id="eqxiu.com_7_" fill="#FBD085" d="M42.132,19.426c0.642,0.018,1.197-0.252,1.555-0.788c0.289-0.432,0.827-1.845,1.529-1.138
	c0.016,0.016,0.031,0.026,0.048,0.035c0.089,0.105,0.313,0.049,0.315-0.132c0.006-0.453-0.221-0.709-0.544-0.815
	c0.13-0.087,0.261-0.174,0.392-0.26c0.169-0.11,0.067-0.4-0.135-0.375c-0.154,0.019-0.31,0.04-0.464,0.061
	c0.103-0.178,0.166-0.375,0.177-0.604c0.002-0.017-0.002-0.032-0.007-0.046c0.007-0.035,0.013-0.07,0.014-0.106
	c0.005-0.124-0.171-0.133-0.22-0.041c-0.389,0.724-1.43-0.283-1.918-0.469c-0.59-0.226-1.251-0.269-1.858-0.081
	c-1.075,0.332-1.859,1.485-1.608,2.611C39.674,18.466,40.936,19.393,42.132,19.426z M39.905,16.53
	c0.009,0.004,0.02,0.008,0.029,0.011c-0.025,0.072-0.044,0.144-0.056,0.215C39.882,16.68,39.891,16.604,39.905,16.53z
	 M102.772,41.07c-0.033-0.006-0.063-0.015-0.096-0.022c-0.004,0.007-0.009,0.015-0.015,0.021c-0.312,0.263-0.823,0.069-1.235-0.19
	c0.116,0.389,0.21,0.802,0.108,1.156c-0.039,0.135-0.226,0.141-0.291,0.026c-0.206-0.361-0.468-0.685-0.76-0.979
	c-0.014,0.489-0.221,0.96-0.6,1.299c-0.108,0.098-0.236,0.061-0.308-0.024c-0.047-0.038-0.078-0.098-0.075-0.183
	c0.04-0.993-0.247-1.828-1.043-2.452c-0.526-0.414-1.124-0.73-1.62-1.185c-0.945-0.864-1.285-2.271-0.649-3.417
	c0.609-1.096,1.988-1.52,3.134-1.044c1.343,0.558,1.794,1.896,1.923,3.24c0.122,1.285,0.201,2.916,1.567,3.521
	C102.926,40.887,102.916,41.096,102.772,41.07z M20.789,26.714c0.098,0.804-0.461,1.478-1.201,1.716
	c-0.296,0.095-0.593,0.121-0.889,0.103c0.083,0.132,0.152,0.277,0.2,0.435c0.196,0.646,0.015,1.422-0.612,1.757
	c-0.658,0.352-1.472-0.005-1.893-0.557c-0.176-0.232-0.283-0.488-0.342-0.757c-0.111,0.125-0.232,0.238-0.366,0.337
	c-0.509,0.375-1.257,0.468-1.762,0.029c-0.557-0.484-0.458-1.312-0.032-1.846c0.102-0.128,0.219-0.244,0.344-0.351
	c-0.168-0.06-0.331-0.147-0.481-0.274c-0.491-0.412-0.691-1.124-0.287-1.667c0.363-0.489,1.079-0.642,1.641-0.459
	c0.197,0.064,0.372,0.162,0.53,0.282c0.014-0.169,0.042-0.337,0.087-0.503c0.18-0.65,0.692-1.289,1.421-1.284
	c0.793,0.005,1.357,0.733,1.397,1.477c0.011,0.217-0.015,0.422-0.069,0.62c0.235-0.088,0.478-0.149,0.726-0.173
	C19.948,25.527,20.692,25.92,20.789,26.714z M86.596,77.191c0.098,0.804-0.462,1.478-1.201,1.716
	c-0.296,0.096-0.593,0.121-0.889,0.104c0.084,0.132,0.151,0.276,0.2,0.435c0.196,0.646,0.015,1.422-0.612,1.757
	c-0.658,0.353-1.473-0.005-1.893-0.558c-0.177-0.231-0.283-0.487-0.342-0.757c-0.111,0.124-0.232,0.238-0.366,0.337
	c-0.51,0.375-1.258,0.469-1.762,0.029c-0.557-0.484-0.458-1.312-0.032-1.846c0.103-0.128,0.219-0.244,0.345-0.352
	c-0.169-0.06-0.331-0.146-0.481-0.273c-0.49-0.412-0.69-1.124-0.287-1.666c0.363-0.489,1.079-0.642,1.642-0.46
	c0.196,0.064,0.371,0.162,0.53,0.282c0.014-0.17,0.042-0.338,0.087-0.503c0.18-0.65,0.692-1.289,1.422-1.284
	c0.793,0.005,1.357,0.732,1.396,1.478c0.012,0.216-0.016,0.422-0.068,0.619c0.234-0.088,0.478-0.149,0.726-0.174
	C85.754,76.003,86.499,76.397,86.596,77.191z M50.323,93.135c0.165,1.233-1.257,1.938-2.255,2.15
	c-0.477,0.103-0.959,0.133-1.441,0.118c0.266,0.206,0.512,0.438,0.728,0.702c0.687,0.842,1.113,2.173,0.228,3.043
	c-0.918,0.9-2.188,0.181-2.811-0.672c-0.207-0.285-0.389-0.586-0.545-0.899c-0.09,0.39-0.219,0.769-0.393,1.129
	c-0.457,0.947-1.543,1.707-2.604,1.214c-1.047-0.487-0.981-1.809-0.606-2.715c0.156-0.376,0.352-0.728,0.576-1.061
	c-0.338,0.148-0.685,0.276-1.04,0.379c-0.903,0.261-2.243,0.262-2.582-0.837c-0.356-1.157,0.681-2.067,1.706-2.302
	c0.412-0.094,0.843-0.146,1.276-0.155c-0.402-0.282-0.774-0.6-1.099-0.928c-0.726-0.732-1.323-2.1-0.252-2.842
	c0.973-0.674,2.267-0.067,3.021,0.648c0.457,0.433,0.932,1.016,1.24,1.65c0.08-0.617,0.207-1.221,0.409-1.78
	c0.36-0.999,1.282-1.867,2.417-1.492c1.238,0.41,1.004,2.057,0.65,3.016c-0.115,0.312-0.258,0.609-0.422,0.894
	c0.369-0.182,0.746-0.339,1.133-0.462C48.668,91.614,50.154,91.864,50.323,93.135z M71.684,14.389
	c0.165,1.234-1.258,1.938-2.255,2.151c-0.477,0.102-0.959,0.133-1.441,0.118c0.266,0.206,0.512,0.438,0.728,0.703
	c0.686,0.841,1.113,2.172,0.227,3.043c-0.916,0.9-2.187,0.18-2.809-0.672c-0.209-0.285-0.39-0.586-0.547-0.899
	c-0.09,0.389-0.217,0.769-0.391,1.129c-0.458,0.948-1.545,1.707-2.604,1.214c-1.048-0.487-0.982-1.809-0.606-2.715
	c0.155-0.375,0.353-0.727,0.575-1.06c-0.337,0.148-0.684,0.276-1.039,0.378c-0.903,0.261-2.243,0.262-2.582-0.836
	c-0.355-1.157,0.682-2.067,1.706-2.302c0.413-0.094,0.843-0.146,1.276-0.155c-0.402-0.282-0.773-0.6-1.099-0.928
	c-0.726-0.732-1.323-2.1-0.253-2.842c0.973-0.674,2.268-0.067,3.021,0.648c0.457,0.433,0.933,1.016,1.24,1.65
	c0.08-0.616,0.208-1.22,0.41-1.78c0.359-0.999,1.283-1.867,2.416-1.492c1.238,0.41,1.005,2.057,0.65,3.016
	c-0.114,0.312-0.257,0.609-0.421,0.894c0.368-0.182,0.746-0.34,1.132-0.462C70.03,12.868,71.514,13.119,71.684,14.389z"/>
<path id="eqxiu.com_6_" fill="#F8B133" d="M17.497,27.69c-0.188,0.222-0.415,0.355-0.686,0.454
	c-0.346,0.124-0.736-0.266-0.612-0.613c0.094-0.274,0.227-0.497,0.454-0.69C17.24,26.345,17.998,27.103,17.497,27.69z
	 M82.551,77.135c-0.235,0.2-0.381,0.436-0.48,0.726c-0.126,0.372,0.281,0.78,0.652,0.644c0.29-0.099,0.517-0.235,0.726-0.472
	C83.975,77.408,83.177,76.601,82.551,77.135z M44.184,93.396c-0.167-0.011-0.334-0.021-0.501-0.032
	c-1.246-0.064-1.246,2.006,0,1.941c0.167-0.011,0.334-0.021,0.501-0.032C45.397,95.218,45.397,93.46,44.184,93.396z M66.084,14.876
	c-0.203-0.791-1.396-0.791-1.602,0c0.073-0.297-0.105,0.112-0.151,0.223c-0.079,0.205-0.085,0.39-0.079,0.606
	c0.053,1.325,2.004,1.325,2.057,0c0.014-0.211,0.006-0.408-0.079-0.606C66.198,15.02,66.006,14.579,66.084,14.876z"/>
<path id="eqxiu.com_5_" fill="#6DC7EE" d="M93.504,53.56c0.224,0.538,0.025,1.127-0.502,1.391c-0.552,0.275-1.192,0.039-1.567-0.416
	c-0.022-0.027-0.044-0.057-0.065-0.088c-0.091,0.188-0.209,0.358-0.357,0.496c-0.428,0.396-1.094,0.474-1.55,0.074
	c-0.562-0.49-0.27-1.27,0.098-1.787c0.045-0.063,0.103-0.139,0.17-0.218c-0.788,0.024-1.687-0.502-1.545-1.313
	c0.16-0.917,1.29-1.15,1.922-0.677c0.033-0.55,0.342-1.107,0.845-1.286c0.513-0.183,0.964,0.131,1.106,0.63
	c0.046,0.162,0.062,0.331,0.057,0.501c0.172-0.109,0.36-0.188,0.563-0.221c0.499-0.079,1.03,0.125,1.233,0.61
	c0.208,0.497,0.095,1.163-0.337,1.503c-0.148,0.117-0.312,0.19-0.48,0.229C93.269,53.15,93.413,53.341,93.504,53.56z M85.426,20.559
	c0.482,0.015,0.965-0.016,1.441-0.118c0.997-0.213,2.42-0.917,2.255-2.151c-0.17-1.271-1.654-1.521-2.666-1.201
	c-0.386,0.123-0.764,0.28-1.132,0.462c0.164-0.285,0.307-0.582,0.421-0.894c0.354-0.959,0.588-2.606-0.65-3.016
	c-1.133-0.375-2.057,0.493-2.416,1.492c-0.202,0.56-0.33,1.164-0.41,1.78c-0.308-0.635-0.783-1.217-1.24-1.65
	c-0.753-0.715-2.048-1.322-3.021-0.648c-1.07,0.742-0.473,2.11,0.253,2.842c0.325,0.328,0.696,0.646,1.099,0.928
	c-0.434,0.009-0.863,0.061-1.276,0.155c-1.024,0.234-2.062,1.145-1.706,2.302c0.339,1.099,1.679,1.097,2.582,0.836
	c0.355-0.103,0.702-0.23,1.039-0.378c-0.223,0.333-0.42,0.685-0.575,1.06c-0.376,0.907-0.441,2.229,0.606,2.715
	c1.06,0.493,2.146-0.266,2.604-1.214c0.174-0.36,0.301-0.74,0.391-1.129c0.157,0.313,0.338,0.615,0.547,0.899
	c0.622,0.853,1.893,1.573,2.809,0.672c0.887-0.871,0.459-2.202-0.227-3.043C85.938,20.997,85.692,20.765,85.426,20.559z
	 M22.281,70.849c-0.386,0.122-0.764,0.279-1.132,0.462c0.164-0.284,0.307-0.582,0.421-0.894c0.354-0.959,0.588-2.606-0.65-3.016
	c-1.133-0.375-2.057,0.492-2.416,1.492c-0.202,0.56-0.33,1.163-0.41,1.779c-0.308-0.635-0.783-1.217-1.24-1.65
	c-0.753-0.715-2.048-1.322-3.021-0.648c-1.07,0.742-0.473,2.11,0.253,2.842c0.325,0.328,0.696,0.646,1.099,0.928
	c-0.434,0.01-0.863,0.062-1.276,0.156c-1.024,0.234-2.062,1.145-1.706,2.301c0.339,1.1,1.679,1.098,2.582,0.837
	c0.355-0.103,0.702-0.229,1.039-0.378c-0.223,0.333-0.42,0.684-0.575,1.06c-0.376,0.907-0.441,2.229,0.606,2.716
	c1.06,0.492,2.146-0.267,2.604-1.215c0.174-0.359,0.301-0.739,0.391-1.129c0.157,0.314,0.338,0.615,0.547,0.9
	c0.622,0.852,1.893,1.572,2.809,0.672c0.887-0.871,0.459-2.202-0.227-3.043c-0.216-0.265-0.462-0.496-0.728-0.703
	c0.482,0.016,0.965-0.016,1.441-0.117c0.997-0.213,2.42-0.917,2.255-2.151C24.777,70.779,23.292,70.529,22.281,70.849z
	 M8.191,47.997c-0.354-0.947-0.163-1.809,0.389-2.636c0.047-0.07,0.051-0.138,0.031-0.195c-0.016-0.109-0.106-0.207-0.25-0.181
	c-0.5,0.091-0.922,0.386-1.188,0.796c-0.096-0.403-0.15-0.816-0.138-1.231c0.004-0.132-0.159-0.225-0.263-0.129
	c-0.271,0.249-0.406,0.65-0.51,1.043c-0.216-0.437-0.551-0.869-0.954-0.807c-0.009,0.001-0.016,0.006-0.024,0.01
	c-0.023-0.023-0.044-0.047-0.069-0.069c-0.109-0.096-0.227,0.076-0.157,0.177c0.852,1.229,0.068,2.662-0.497,3.822
	c-0.591,1.213-0.904,2.59-0.048,3.767c0.729,1.003,2.127,1.36,3.218,0.743c1.139-0.646,1.583-2.023,1.227-3.254
	C8.77,49.207,8.425,48.625,8.191,47.997z M52.828,1.191c0.068-0.141,0.138-0.281,0.208-0.421c0.092-0.18-0.142-0.38-0.305-0.256
	c-0.124,0.094-0.247,0.189-0.37,0.285c0-0.206-0.045-0.409-0.15-0.612c-0.008-0.016-0.018-0.027-0.029-0.037
	c-0.011-0.033-0.024-0.066-0.042-0.099c-0.058-0.109-0.214-0.029-0.21,0.075c0.026,0.821-1.379,0.472-1.895,0.556
	c-0.623,0.101-1.217,0.395-1.648,0.862c-0.762,0.827-0.863,2.218-0.08,3.066c0.826,0.895,2.383,1.063,3.434,0.492
	c0.564-0.307,0.909-0.819,0.95-1.462c0.033-0.519-0.211-2.011,0.752-1.751c0.021,0.006,0.04,0.007,0.059,0.006
	c0.13,0.046,0.296-0.115,0.207-0.272C53.485,1.229,53.16,1.121,52.828,1.191z M64.609,5.627c-0.204-0.486-0.734-0.688-1.233-0.61
	c-0.203,0.032-0.392,0.111-0.563,0.22c0.006-0.17-0.011-0.339-0.058-0.5c-0.143-0.499-0.594-0.813-1.105-0.63
	c-0.503,0.179-0.812,0.736-0.846,1.286c-0.631-0.473-1.761-0.239-1.921,0.678c-0.142,0.811,0.757,1.337,1.544,1.313
	c-0.066,0.079-0.124,0.154-0.169,0.218c-0.368,0.517-0.659,1.296-0.098,1.787c0.456,0.399,1.122,0.322,1.55-0.075
	c0.148-0.138,0.266-0.308,0.357-0.496c0.021,0.031,0.043,0.06,0.065,0.087c0.375,0.456,1.015,0.692,1.567,0.416
	c0.527-0.263,0.726-0.853,0.502-1.39c-0.092-0.219-0.236-0.41-0.41-0.571c0.169-0.04,0.332-0.113,0.48-0.229
	C64.704,6.79,64.817,6.124,64.609,5.627z M13.363,47.271c0.148-0.138,0.266-0.308,0.357-0.496c0.021,0.031,0.043,0.06,0.065,0.087
	c0.375,0.456,1.015,0.692,1.567,0.416c0.527-0.263,0.726-0.853,0.502-1.39c-0.092-0.219-0.236-0.41-0.41-0.571
	c0.169-0.04,0.332-0.113,0.48-0.229c0.432-0.34,0.545-1.006,0.337-1.503c-0.204-0.486-0.734-0.688-1.233-0.61
	c-0.203,0.032-0.392,0.111-0.563,0.22c0.006-0.17-0.011-0.339-0.058-0.5c-0.143-0.499-0.594-0.813-1.105-0.63
	c-0.503,0.179-0.812,0.736-0.846,1.286c-0.631-0.473-1.761-0.239-1.921,0.678c-0.142,0.811,0.757,1.337,1.544,1.313
	c-0.066,0.079-0.124,0.154-0.169,0.218c-0.368,0.517-0.659,1.296-0.098,1.787C12.269,47.745,12.935,47.667,13.363,47.271z
	 M50.586,101.411c-0.204-0.485-0.734-0.688-1.233-0.61c-0.203,0.033-0.392,0.111-0.563,0.221c0.006-0.17-0.011-0.339-0.058-0.5
	c-0.143-0.5-0.594-0.814-1.105-0.631c-0.503,0.18-0.812,0.736-0.846,1.285c-0.631-0.473-1.761-0.238-1.921,0.678
	c-0.142,0.812,0.757,1.338,1.544,1.313c-0.066,0.079-0.124,0.154-0.169,0.218c-0.368,0.518-0.659,1.297-0.098,1.787
	c0.456,0.399,1.122,0.322,1.55-0.074c0.148-0.139,0.266-0.309,0.357-0.496c0.021,0.031,0.043,0.061,0.065,0.088
	c0.375,0.455,1.015,0.691,1.567,0.416c0.527-0.264,0.726-0.854,0.502-1.391c-0.092-0.219-0.236-0.41-0.41-0.571
	c0.169-0.04,0.332-0.112,0.48-0.229C50.681,102.574,50.794,101.908,50.586,101.411z"/>
<path id="eqxiu.com_4_" fill="#B6E3F6" d="M91.632,52.973c-0.121,0.186-0.338,0.307-0.563,0.261
	c-0.196-0.04-0.309-0.228-0.342-0.413c-0.067-0.338,0.15-0.701,0.483-0.794c0.125-0.036,0.226,0.067,0.246,0.173
	C91.708,52.329,91.803,52.71,91.632,52.973z M83.523,18.776c-0.203-0.791-1.396-0.791-1.602,0c0.073-0.297-0.105,0.112-0.151,0.223
	c-0.079,0.205-0.085,0.39-0.079,0.606c0.053,1.325,2.004,1.325,2.057,0c0.014-0.211,0.006-0.408-0.079-0.606
	C83.636,18.92,83.445,18.479,83.523,18.776z M19.347,72.537c-0.203-0.791-1.396-0.791-1.602,0c0.073-0.297-0.105,0.111-0.151,0.223
	c-0.079,0.205-0.085,0.39-0.079,0.606c0.053,1.325,2.004,1.325,2.057,0c0.014-0.211,0.006-0.408-0.079-0.606
	C19.46,72.68,19.269,72.24,19.347,72.537z M61.987,6.249c-0.334,0-0.604,0.27-0.604,0.604s0.27,0.604,0.604,0.604
	s0.604-0.271,0.604-0.604S62.321,6.249,61.987,6.249z M13.64,44.206c-0.334,0-0.604,0.27-0.604,0.604s0.27,0.604,0.604,0.604
	s0.604-0.271,0.604-0.604S13.974,44.206,13.64,44.206z M47.964,102.033c-0.334,0-0.604,0.27-0.604,0.604s0.27,0.604,0.604,0.604
	s0.604-0.271,0.604-0.604S48.298,102.033,47.964,102.033z"/>
<path id="eqxiu.com_3_" fill="#F077AB" d="M95.975,69.481c-0.642,0.28-1.335,0.389-2.033,0.373c0.331,0.157,0.65,0.339,0.946,0.555
	c0.895,0.65,1.993,1.883,1.358,3.062c-0.701,1.302-2.43,0.5-3.169-0.316c-0.346-0.382-0.646-0.843-0.897-1.342
	c-0.027,0.503-0.103,0.998-0.21,1.456c-0.239,1.016-0.964,2.432-2.25,1.96c-1.194-0.438-1.197-1.886-0.821-2.883
	c0.069-0.184,0.147-0.361,0.23-0.536c-0.205,0.135-0.413,0.261-0.622,0.376c-1.001,0.554-2.56,0.76-3.162-0.479
	c-0.549-1.127,0.238-2.328,1.274-2.796c0.376-0.17,0.775-0.262,1.182-0.31c-0.409-0.18-0.798-0.403-1.156-0.674
	c-0.942-0.712-1.66-2.031-0.888-3.14c0.814-1.171,2.358-0.575,3.224,0.164c0.37,0.315,0.737,0.682,1.072,1.082
	c-0.311-0.911-0.263-2.015,0.081-2.848c0.427-1.035,1.54-1.836,2.677-1.384c1.096,0.436,1.47,1.717,1.533,2.79
	c0.029,0.498-0.022,1.009-0.126,1.501c1.06-0.506,2.691-0.8,3.322,0.499C98.131,67.808,97.023,69.022,95.975,69.481z M20.193,13.661
	c-0.204-0.486-0.734-0.688-1.233-0.61c-0.203,0.032-0.392,0.111-0.563,0.22c0.006-0.17-0.011-0.339-0.057-0.5
	c-0.143-0.499-0.594-0.813-1.106-0.63c-0.502,0.179-0.811,0.736-0.845,1.286c-0.631-0.473-1.761-0.239-1.921,0.678
	c-0.142,0.811,0.756,1.337,1.544,1.313c-0.067,0.079-0.125,0.154-0.169,0.218c-0.368,0.517-0.659,1.296-0.098,1.787
	c0.456,0.399,1.122,0.322,1.549-0.075c0.149-0.138,0.267-0.308,0.357-0.496c0.021,0.031,0.043,0.06,0.066,0.087
	c0.375,0.456,1.015,0.692,1.567,0.416c0.527-0.263,0.726-0.853,0.501-1.39c-0.091-0.219-0.235-0.41-0.41-0.571
	c0.169-0.04,0.332-0.113,0.48-0.229C20.288,14.824,20.401,14.158,20.193,13.661z M56.81,87.911
	c-0.673,0.004-1.326,0.177-1.994,0.232c-1.007,0.083-1.785-0.334-2.431-1.09c-0.055-0.064-0.119-0.087-0.18-0.083
	c-0.109-0.014-0.228,0.046-0.242,0.192c-0.048,0.505,0.121,0.992,0.443,1.359c-0.414-0.018-0.826-0.077-1.223-0.201
	c-0.126-0.04-0.259,0.091-0.196,0.217c0.166,0.329,0.516,0.568,0.865,0.774c-0.479,0.09-0.985,0.295-1.035,0.699
	c0,0.009,0.002,0.018,0.004,0.026c-0.029,0.016-0.058,0.03-0.086,0.048c-0.122,0.079,0.012,0.239,0.128,0.199
	c1.414-0.486,2.58,0.657,3.543,1.517c1.008,0.898,2.248,1.573,3.613,1.069c1.162-0.43,1.887-1.678,1.588-2.896
	C59.296,88.704,58.09,87.902,56.81,87.911z M84.129,38.781c-0.547-0.34-0.835-0.886-0.839-1.529
	c-0.007-1.196,0.877-2.488,2.056-2.792c1.117-0.289,2.296,0.457,2.664,1.52c0.208,0.601,0.187,1.263-0.02,1.86
	c-0.17,0.494-1.142,1.567-0.405,1.932c0.094,0.046,0.091,0.222-0.033,0.222c-0.037,0-0.072-0.004-0.106-0.01
	c-0.014,0.005-0.029,0.009-0.046,0.008c-0.229-0.003-0.429-0.06-0.61-0.157c0.026,0.154,0.052,0.307,0.076,0.461
	c0.032,0.201-0.255,0.312-0.37,0.147c-0.089-0.128-0.181-0.255-0.272-0.382c-0.095,0.326-0.344,0.561-0.797,0.571
	c-0.181,0.004-0.244-0.218-0.142-0.311c0.008-0.017,0.018-0.033,0.032-0.048C86.001,39.546,84.571,39.055,84.129,38.781z
	 M85.884,34.912c0.071,0.009,0.144,0.025,0.216,0.049c0.003-0.01,0.007-0.021,0.011-0.03C86.036,34.918,85.96,34.912,85.884,34.912z
	 M3.769,58.959c-0.318,0.081-0.641,0.171-0.963,0.259c-0.606,0.149-0.187,1.141,0.409,1.104c0.343-0.015,0.687-0.039,1.034-0.064
	C5.136,60.206,4.678,58.717,3.769,58.959z M29.572,14.07c0.013-0.211,0.006-0.408-0.079-0.606c-0.032-0.079-0.224-0.52-0.145-0.223
	c-0.204-0.791-1.397-0.791-1.602,0c0.073-0.297-0.105,0.112-0.151,0.223c-0.079,0.205-0.085,0.39-0.079,0.606
	C27.568,15.396,29.519,15.396,29.572,14.07z M30.005,89.049c-0.204-0.485-0.734-0.688-1.233-0.61
	c-0.203,0.033-0.392,0.111-0.563,0.221c0.006-0.17-0.011-0.339-0.058-0.5c-0.143-0.5-0.594-0.814-1.105-0.631
	c-0.503,0.18-0.812,0.736-0.846,1.285c-0.631-0.473-1.761-0.238-1.921,0.678c-0.142,0.812,0.757,1.338,1.544,1.313
	c-0.066,0.079-0.124,0.154-0.169,0.218c-0.368,0.518-0.659,1.297-0.098,1.787c0.456,0.399,1.122,0.322,1.55-0.074
	c0.148-0.139,0.266-0.309,0.357-0.496c0.021,0.031,0.043,0.061,0.065,0.088c0.375,0.455,1.015,0.691,1.567,0.416
	c0.527-0.264,0.726-0.854,0.502-1.391c-0.092-0.219-0.236-0.41-0.41-0.571c0.169-0.04,0.332-0.112,0.48-0.229
	C30.1,90.212,30.213,89.546,30.005,89.049z"/>
<path id="eqxiu.com_2_" fill="#94C01F" d="M51.453,5.614c-0.279,0.327-0.862,0.404-1.261,0.381
	c-0.565-0.033-1.085-0.284-1.514-0.646c-0.759-0.642-1.459-1.743-1.222-2.778c0.079-0.343,0.335-0.781,0.753-0.661
	c0.46,0.132,0.425,0.704,0.334,1.062c0,0.001,0,0.001-0.001,0.002c0.274-0.279,0.651-0.417,1.06-0.193
	c0.433,0.237,0.425,0.635,0.274,1.008c0.296-0.118,0.625-0.092,0.831,0.234c0.154,0.244,0.104,0.493-0.029,0.712
	c0.007-0.001,0.013-0.003,0.02-0.004c0.079-0.079,0.201-0.111,0.316-0.079c0.065,0.018,0.122,0.054,0.165,0.102
	c0.026,0.011,0.052,0.023,0.077,0.038C51.554,4.962,51.69,5.336,51.453,5.614z M100.802,33.578
	c-1.055-0.997-2.699-0.841-3.851-0.304c-0.65,0.303-1.225,0.797-1.572,1.496c-0.246,0.494-0.477,1.287-0.257,1.863
	c0.187,0.488,0.69,0.564,1.051,0.299c0.031-0.021,0.057-0.047,0.086-0.073c0.077-0.022,0.149-0.072,0.205-0.143
	c0.102-0.125,0.131-0.299,0.084-0.455c0.001-0.009,0.004-0.018,0.007-0.028c0.178,0.317,0.435,0.547,0.799,0.514
	c0.486-0.044,0.697-0.446,0.726-0.902c0.342,0.443,0.794,0.719,1.305,0.325c0.478-0.37,0.529-0.943,0.36-1.479
	c0,0.001,0,0.002,0.002,0.002c0.358,0.357,0.995,0.784,1.397,0.286C101.513,34.528,101.152,33.908,100.802,33.578z M59.158,88.003
	c-0.48-0.205-0.886,0.104-0.945,0.547c-0.007,0.038-0.007,0.074-0.008,0.112c-0.038,0.071-0.053,0.157-0.041,0.247
	c0.02,0.158,0.125,0.302,0.27,0.377c0.006,0.008,0.009,0.015,0.015,0.024c-0.352-0.093-0.695-0.068-0.925,0.215
	c-0.307,0.382-0.165,0.812,0.144,1.148c-0.557-0.062-1.068,0.072-1.141,0.713c-0.066,0.601,0.309,1.036,0.812,1.288
	c0,0-0.001-0.002-0.003-0.001c-0.506,0.01-1.255,0.17-1.178,0.805c0.068,0.581,0.766,0.751,1.245,0.73
	c1.449-0.065,2.481-1.354,2.897-2.555c0.234-0.679,0.278-1.436,0.018-2.171C60.133,88.963,59.724,88.247,59.158,88.003z
	 M8.97,50.827c-0.038,0.007-0.072,0.02-0.107,0.033c-0.081-0.01-0.166,0.006-0.246,0.049c-0.141,0.074-0.238,0.224-0.257,0.386
	c-0.005,0.008-0.011,0.013-0.018,0.022c-0.038-0.362-0.183-0.674-0.529-0.789c-0.466-0.151-0.818,0.134-1.022,0.542
	c-0.14-0.542-0.447-0.973-1.071-0.813c-0.585,0.151-0.859,0.656-0.917,1.216c0,0,0.001-0.001,0-0.003
	c-0.188-0.47-0.604-1.113-1.17-0.816c-0.519,0.27-0.43,0.982-0.241,1.423c0.575,1.332,2.147,1.839,3.417,1.803
	c0.718-0.021,1.441-0.249,2.036-0.754c0.421-0.356,0.946-0.993,0.973-1.609C9.838,50.995,9.405,50.726,8.97,50.827z M84.812,33.708
	c-0.606,0.201-1.166,0.579-1.545,1.161c-0.269,0.412-0.555,1.09-0.42,1.621c0.114,0.452,0.553,0.57,0.897,0.373
	c0.032-0.015,0.056-0.035,0.084-0.055c0.071-0.012,0.14-0.048,0.196-0.106c0.104-0.099,0.147-0.251,0.122-0.393
	c0.002-0.008,0.005-0.016,0.009-0.024c0.124,0.299,0.327,0.529,0.653,0.537c0.434,0.011,0.663-0.322,0.735-0.723
	c0.257,0.427,0.627,0.718,1.121,0.422c0.46-0.278,0.564-0.779,0.47-1.272c0,0.001,0,0.002,0.003,0.003
	c0.279,0.353,0.798,0.796,1.205,0.397c0.374-0.362,0.118-0.948-0.156-1.275C87.357,33.384,85.886,33.353,84.812,33.708z
	 M41.496,18.916c-0.016-0.062-0.047-0.122-0.096-0.169c-0.085-0.083-0.208-0.114-0.315-0.083c-0.007-0.002-0.013-0.004-0.02-0.006
	c0.222-0.127,0.387-0.321,0.37-0.61c-0.023-0.385-0.298-0.567-0.614-0.606c0.312-0.253,0.511-0.598,0.247-1.014
	c-0.25-0.393-0.647-0.455-1.021-0.343c0,0,0.001,0,0.001-0.001c0.253-0.27,0.56-0.754,0.221-1.092
	c-0.308-0.307-0.743-0.047-0.979,0.215c-0.708,0.792-0.626,2.094-0.271,3.022c0.2,0.524,0.534,0.995,1.013,1.297
	c0.338,0.213,0.886,0.427,1.288,0.275c0.342-0.128,0.404-0.522,0.225-0.816C41.529,18.961,41.513,18.937,41.496,18.916z"/>
<path id="eqxiu.com_1_" fill="#F5A5C7" d="M31.978,15.726c0.686,0.841,1.113,2.172,0.227,3.043c-0.917,0.9-2.187,0.18-2.809-0.672
	c-0.208-0.285-0.389-0.586-0.546-0.899c-0.09,0.389-0.218,0.769-0.392,1.129c-0.458,0.948-1.544,1.707-2.604,1.214
	c-1.047-0.487-0.982-1.809-0.606-2.715c0.156-0.375,0.352-0.727,0.576-1.06c-0.337,0.148-0.684,0.276-1.04,0.378
	c-0.903,0.261-2.243,0.262-2.582-0.836c-0.356-1.157,0.681-2.067,1.706-2.302c0.413-0.094,0.843-0.146,1.276-0.155
	c-0.402-0.282-0.773-0.6-1.099-0.928c-0.726-0.732-1.323-2.1-0.252-2.842c0.973-0.674,2.267-0.067,3.021,0.648
	c0.457,0.433,0.932,1.016,1.24,1.65c0.081-0.616,0.208-1.22,0.41-1.78c0.36-0.999,1.283-1.867,2.417-1.492
	c1.238,0.41,1.004,2.057,0.65,3.016c-0.115,0.312-0.257,0.609-0.421,0.894c0.368-0.182,0.746-0.34,1.132-0.462
	c1.012-0.32,2.496-0.07,2.666,1.201c0.165,1.234-1.257,1.938-2.255,2.151c-0.477,0.102-0.959,0.133-1.441,0.118
	C31.516,15.229,31.762,15.461,31.978,15.726z M6.304,59.495c-0.139-0.091-0.283-0.158-0.433-0.206
	c0.239-0.177,0.45-0.386,0.616-0.649c0.415-0.656,0.412-1.532-0.178-2.086c-0.583-0.548-1.407-0.373-1.932,0.159
	c-0.175,0.178-0.322,0.381-0.446,0.599c-0.085-0.186-0.197-0.36-0.345-0.52c-0.507-0.546-1.407-0.743-2.019-0.238
	C1.004,57.017,1.021,57.835,1.3,58.45c0.071,0.156,0.157,0.303,0.255,0.441c-0.199,0.01-0.396,0.047-0.587,0.124
	c-0.548,0.221-1,0.797-0.965,1.404c0.038,0.676,0.647,1.094,1.289,1.096c0.196,0,0.376-0.036,0.544-0.099
	c-0.028,0.163-0.043,0.327-0.039,0.49c0.015,0.683,0.469,1.382,1.207,1.396c0.669,0.014,1.184-0.537,1.333-1.151
	c0.04-0.161,0.06-0.327,0.065-0.493c0.217,0.168,0.463,0.297,0.748,0.361c0.677,0.155,1.53-0.093,1.81-0.785
	C7.227,60.576,6.868,59.865,6.304,59.495z M39.01,84.3c-0.272-0.011-0.538,0.04-0.791,0.137c0.053-0.22,0.077-0.443,0.059-0.665
	c-0.05-0.688-0.552-1.216-1.265-1.115c-0.701,0.099-1.25,0.737-1.442,1.44c-0.692-0.781-2.221-0.78-2.673,0.364
	c-0.402,1.015,0.623,1.938,1.65,2.118c-0.107,0.085-0.203,0.167-0.278,0.238c-0.616,0.572-1.203,1.505-0.605,2.291
	c0.485,0.641,1.37,0.72,2.031,0.319c0.229-0.141,0.427-0.328,0.596-0.547c0.02,0.046,0.04,0.09,0.062,0.131
	c0.365,0.691,1.131,1.17,1.922,0.96c0.755-0.2,1.17-0.913,1.024-1.669c-0.061-0.308-0.197-0.596-0.379-0.852
	c0.23-0.006,0.461-0.057,0.685-0.169c0.651-0.324,0.977-1.159,0.84-1.859C40.312,84.739,39.678,84.333,39.01,84.3z M85.5,86.702
	c-0.139-0.091-0.283-0.158-0.433-0.206c0.239-0.176,0.45-0.386,0.616-0.648c0.415-0.657,0.412-1.532-0.178-2.087
	c-0.584-0.548-1.407-0.372-1.933,0.16c-0.175,0.178-0.321,0.38-0.445,0.599c-0.086-0.186-0.197-0.361-0.345-0.521
	c-0.508-0.546-1.407-0.743-2.02-0.238c-0.562,0.464-0.547,1.282-0.268,1.896c0.071,0.156,0.157,0.304,0.255,0.442
	c-0.198,0.01-0.396,0.046-0.587,0.123c-0.549,0.221-1,0.797-0.966,1.405c0.038,0.675,0.647,1.093,1.289,1.095
	c0.196,0.001,0.376-0.036,0.544-0.099c-0.027,0.163-0.043,0.327-0.039,0.491c0.015,0.683,0.47,1.381,1.207,1.396
	c0.669,0.015,1.184-0.537,1.334-1.151c0.039-0.161,0.06-0.326,0.065-0.493c0.217,0.169,0.463,0.297,0.747,0.362
	c0.678,0.154,1.53-0.093,1.811-0.785C86.422,87.784,86.064,87.072,85.5,86.702z M91.907,67.944
	c-0.221-0.207-0.468-0.354-0.775-0.301c-0.201,0.04-0.381,0.134-0.535,0.268c-0.36,0.313-0.521,0.942-0.36,1.403
	c0.006,0.073,0.013,0.147,0.026,0.214c0.113,0.428,0.508,0.802,0.962,0.635c0.401-0.146,0.97-0.501,1.144-0.909
	C92.548,68.819,92.214,68.231,91.907,67.944z"/>
</svg>
