<?xml version="1.0" encoding="utf-8"?>
<!-- Generator: Adobe Illustrator 16.0.0, SVG Export Plug-In . SVG Version: 6.00 Build 0)  -->
<!DOCTYPE svg PUBLIC "-//W3C//DTD SVG 1.1//EN" "http://www.w3.org/Graphics/SVG/1.1/DTD/svg11.dtd">
<svg version="1.1" id="eqxiu.com" xmlns="http://www.w3.org/2000/svg" xmlns:xlink="http://www.w3.org/1999/xlink" x="0px" y="0px"
	 width="122.438px" height="63.334px" viewBox="0 0 122.438 63.334" enable-background="new 0 0 122.438 63.334"
	 xml:space="preserve">
<path id="eqxiu.com_5_" fill="#EEB0C3" d="M49.742,46.196C40.334,59.1,20.454,61.315,0,39.44
	C17.077,27.428,38.002,24.112,49.742,46.196z M75.727,35.699c0.741,0.439,1.504,0.821,2.282,1.153
	c7.047,3.008,15.451,1.512,22.403-6.126c3.26-3.581,6.202-8.502,8.531-14.955C93.179,12.449,77.331,16.466,75.727,35.699z"/>
<path id="eqxiu.com_4_" fill="#EB96A8" d="M49.648,35.298c-10.722,6.078-25.402,1.304-32.815-20.583
	C32.663,11.707,48.426,16.038,49.648,35.298z M100.412,30.725c-6.952,7.638-15.356,9.135-22.403,6.126
	c-2.004,1.784-3.936,3.953-5.77,6.552c7.714,13.986,27.16,18.678,50.198-0.456C115.728,36.833,108.089,32.263,100.412,30.725z"/>
<path id="eqxiu.com_3_" fill-rule="evenodd" clip-rule="evenodd" fill="#A8D4CE" d="M81.51,38.971
	c-1.228,0.391-2.451,0.655-3.655,0.826c0.863,0.856,1.687,1.8,2.438,2.847c5.078,7.079,5.218,15.671,0.311,19.191
	c-4.903,3.52-12.999,0.634-18.078-6.445c-0.751-1.048-1.381-2.129-1.916-3.222c-0.548,1.086-1.19,2.16-1.955,3.198
	c-5.163,7.019-13.292,9.805-18.154,6.228c-4.864-3.578-4.621-12.167,0.542-19.185c0.764-1.039,1.599-1.973,2.473-2.818
	c-1.203-0.186-2.423-0.465-3.647-0.871c-8.269-2.743-13.432-9.61-11.531-15.343c1.9-5.73,10.145-8.154,18.414-5.411
	c1.224,0.406,2.37,0.911,3.445,1.481c-0.195-1.201-0.307-2.449-0.299-3.738C49.949,6.997,54.885-0.036,60.923,0
	c6.039,0.037,10.891,7.129,10.838,15.84c-0.008,1.29-0.135,2.536-0.344,3.734c1.082-0.557,2.233-1.048,3.463-1.439
	c8.3-2.643,16.514-0.122,18.346,5.632C95.057,29.521,89.812,36.327,81.51,38.971z"/>
<path id="eqxiu.com_2_" fill-rule="evenodd" clip-rule="evenodd" fill="#70A8A0" d="M74.106,36.352
	c-0.791,0.251-1.579,0.422-2.354,0.532c0.556,0.552,1.086,1.159,1.569,1.833c3.271,4.556,3.358,10.088,0.201,12.351
	c-3.158,2.267-8.368,0.408-11.636-4.146c-0.484-0.675-0.889-1.371-1.233-2.074c-0.353,0.699-0.767,1.391-1.259,2.059
	c-3.324,4.517-8.555,6.312-11.685,4.009c-3.131-2.305-2.974-7.833,0.349-12.348c0.492-0.668,1.029-1.27,1.591-1.814
	c-0.773-0.12-1.56-0.299-2.347-0.561c-5.322-1.765-8.645-6.187-7.422-9.874c1.223-3.689,6.529-5.25,11.852-3.484
	c0.788,0.261,1.525,0.586,2.217,0.953c-0.125-0.772-0.197-1.575-0.192-2.405c0.034-5.607,3.212-10.135,7.098-10.11
	c3.886,0.023,7.009,4.587,6.976,10.195c-0.005,0.83-0.087,1.631-0.222,2.403c0.696-0.358,1.438-0.675,2.229-0.927
	c5.344-1.7,10.628-0.077,11.808,3.627C82.824,30.27,79.45,34.65,74.106,36.352z"/>
<path id="eqxiu.com_1_" fill-rule="evenodd" clip-rule="evenodd" fill="#F1E5BA" d="M68.311,34.16
	c-0.024,4.194-3.446,7.575-7.639,7.55c-4.193-0.025-7.572-3.448-7.546-7.641c0.025-4.193,3.445-7.572,7.638-7.546
	C64.957,26.548,68.335,29.967,68.311,34.16z"/>
</svg>
