<?xml version="1.0" encoding="utf-8"?>
<!-- Generator: Adobe Illustrator 16.0.0, SVG Export Plug-In . SVG Version: 6.00 Build 0)  -->
<!DOCTYPE svg PUBLIC "-//W3C//DTD SVG 1.1//EN" "http://www.w3.org/Graphics/SVG/1.1/DTD/svg11.dtd">
<svg version="1.1" id="eqxiu.com" xmlns="http://www.w3.org/2000/svg" xmlns:xlink="http://www.w3.org/1999/xlink" x="0px" y="0px"
	 width="62.229px" height="63.892px" viewBox="0 0 62.229 63.892" enable-background="new 0 0 62.229 63.892" xml:space="preserve">
<path id="eqxiu.com_7_" fill="#ABDAD4" d="M7.075,23.666c9.405-4.04,12.897-0.347,13.937,2.098
	C19.299,27.794,14.874,30.295,7.075,23.666z M35.922,24.502c0.844,8.864,6.631,16.744,9.01,16.841
	c-4.385-3.822-12.264-15.165-5.473-35.602C37.381,7.606,35.436,19.408,35.922,24.502z M37.572,17.118
	c2.359,0.658,7.025,0.267,9.525-8.827C37.84,10.094,37.096,14.717,37.572,17.118z M44.357,3.499
	c-0.406-0.015-0.83,0.042-1.252,0.146c0.369-0.367,0.715-0.782,1.012-1.245c-0.426,0.094-0.857,0.257-1.273,0.464
	c0.312-0.433,0.592-0.903,0.809-1.404c-0.424,0.198-0.84,0.461-1.234,0.761c0.242-0.477,0.441-0.98,0.57-1.495
	c-0.402,0.293-0.783,0.644-1.135,1.02c0.158-0.499,0.268-1.01,0.303-1.515c-0.363,0.375-0.691,0.795-0.982,1.231
	C41.24,0.966,41.256,0.47,41.193,0c-0.305,0.438-0.562,0.908-0.783,1.383c-0.025-0.471-0.107-0.928-0.262-1.34
	c-0.23,0.48-0.41,0.978-0.545,1.47c-0.119-0.423-0.291-0.819-0.533-1.154c-0.734,2.486-0.025,5.022,0.389,5.384
	C40,5.921,42.609,5.457,44.357,3.499z M14.464,8.247c0.663-0.155,3.031-2.259,3.589-5.348c-0.425,0.24-0.821,0.562-1.185,0.932
	c0.146-0.604,0.24-1.244,0.252-1.901c-0.376,0.363-0.712,0.798-1.008,1.27c0.048-0.636,0.039-1.289-0.052-1.936
	c-0.309,0.468-0.568,0.995-0.782,1.546c-0.053-0.636-0.164-1.274-0.354-1.879c-0.228,0.551-0.396,1.146-0.519,1.75
	c-0.151-0.607-0.359-1.197-0.639-1.733c-0.135,0.608-0.207,1.241-0.231,1.869c-0.242-0.548-0.538-1.063-0.894-1.503
	c-0.036,0.636-0.007,1.276,0.067,1.898c-0.322-0.463-0.689-0.878-1.105-1.201c0.064,0.633,0.193,1.251,0.363,1.837
	c-0.386-0.356-0.809-0.652-1.264-0.842C11.51,5.997,13.817,8.138,14.464,8.247z M0.074,34.32c0.366,0.123,0.767,0.186,1.178,0.201
	C0.819,34.758,0.393,35.043,0,35.385c0.413,0.027,0.848-0.006,1.283-0.082c-0.399,0.309-0.779,0.662-1.111,1.059
	C0.611,36.295,1.059,36.166,1.497,36c-0.346,0.369-0.662,0.773-0.917,1.207c0.445-0.158,0.885-0.375,1.305-0.625
	c-0.276,0.412-0.513,0.848-0.679,1.297c0.43-0.244,0.84-0.537,1.222-0.857c-0.194,0.436-0.34,0.883-0.409,1.326
	c0.394-0.316,0.755-0.676,1.081-1.049c-0.102,0.436-0.15,0.871-0.119,1.287c0.338-0.373,0.633-0.779,0.888-1.189
	c-0.005,0.416,0.046,0.822,0.176,1.191c1.332-2.064,1.364-4.561,1.084-5C4.685,33.281,2.188,33.006,0.074,34.32z M20.219,39.74
	c0.269,0.135,0.571,0.229,0.886,0.289c-0.361,0.133-0.722,0.303-1.064,0.523c0.315,0.068,0.655,0.092,0.999,0.082
	c-0.343,0.193-0.677,0.424-0.979,0.691c0.347-0.002,0.707-0.049,1.064-0.129c-0.31,0.246-0.599,0.523-0.846,0.828
	c0.361-0.072,0.726-0.189,1.078-0.334c-0.26,0.287-0.493,0.596-0.672,0.924c0.359-0.139,0.709-0.318,1.041-0.521
	c-0.199,0.312-0.363,0.641-0.467,0.975c0.34-0.199,0.66-0.434,0.954-0.686c-0.128,0.324-0.215,0.656-0.239,0.98
	c0.304-0.25,0.578-0.529,0.821-0.818c-0.051,0.322-0.058,0.641,0,0.941c1.263-1.443,1.573-3.363,1.407-3.734
	C23.896,39.463,22,38.967,20.219,39.74z M29.4,14.761c-0.332,0.197-0.641,0.459-0.923,0.759c0.105-0.481,0.168-0.99,0.167-1.512
	c-0.292,0.294-0.55,0.646-0.776,1.024c0.027-0.504,0.008-1.023-0.075-1.534c-0.237,0.376-0.433,0.799-0.593,1.239
	c-0.053-0.503-0.153-1.007-0.313-1.483c-0.171,0.441-0.294,0.915-0.381,1.396c-0.13-0.478-0.306-0.942-0.537-1.362
	c-0.097,0.484-0.142,0.987-0.151,1.485c-0.202-0.43-0.444-0.833-0.734-1.176c-0.018,0.505,0.017,1.012,0.086,1.504
	c-0.263-0.362-0.562-0.685-0.897-0.933c0.062,0.501,0.175,0.989,0.32,1.451c-0.312-0.276-0.652-0.502-1.017-0.646
	c0.691,2.357,2.558,4.015,3.073,4.09C27.17,18.929,29.012,17.219,29.4,14.761z M6.011,39.604c7.455-0.188,8.643-3.693,8.587-5.628
	C12.846,33.152,9.157,32.843,6.011,39.604z M60.105,50.91c-0.039,0.047-0.104,0.314-0.219,0.645
	c0.588,0.697,0.484,2.113,0.547,2.246c0.09,0.193,2.512,1.867,0.807,3.055c-1.283,0.893-1.967,0.436-2.479,0.557
	c0.436,0.295,1.24,0.119,2.104,1.422c1.148,1.732-1.715,2.398-1.871,2.545c-0.154,0.146-0.98,2.938-2.656,1.709
	c-1.252-0.918-1.064-1.701-1.338-2.15c-0.146,0.506,0.281,1.211-0.66,2.406c-1.287,1.633-2.811-0.893-2.998-0.996
	c-0.188-0.102-3.08-0.02-2.445-1.998c0.035-0.109,0.076-0.195,0.113-0.289c0.465-1.137,1.158-1.244,1.477-1.613
	c-0.527,0.016-1.074,0.611-2.449,0.08c-1.014-0.393-0.971-1.18-0.693-1.873c0.252-0.633,0.695-1.186,0.715-1.287
	c0.041-0.209-0.93-2.957,1.148-2.941c1.426,0.012,1.742,0.707,2.199,0.93c0.016,0.008,0.027,0.018,0.043,0.023
	c-0.008-0.021-0.023-0.043-0.033-0.066c0.043-0.15,0.047-0.314,0.006-0.494c-0.809-0.096-1.68-0.438-1.463-1.625
	c0.27-1.473,1.041-1.65,1.33-2.09c-0.52,0.084-0.984,0.744-2.418,0.395c-2.02-0.492-0.4-2.922-0.387-3.135
	c0.002-0.045-0.057-0.207-0.131-0.426c-1.658-0.588-3.457-1.484-5.354-2.82l-0.061,0.082c-0.473-0.377-1-0.744-1.574-1.098
	c-1.398-0.502-2.939-1.166-4.541-1.986c-3.291-0.955-7.474-1.289-12.621-0.365c2.939-1.467,6.395-1.736,9.634-1.316
	c-0.865-0.533-1.729-1.105-2.583-1.721l-0.002,0.002c-5.597-2.926-14.546-5.044-26.02-3.118c2.161-1.765,14.888-1.586,19.847-0.322
	c1.098,0.28,2.172,0.653,3.215,1.081c-1.157-1.02-2.259-2.12-3.265-3.302c-4.417-5.194-11.413-19.187-10.566-22.806
	c5.074,17.077,13.651,26.004,21.268,30.519c1.143,0.246,2.238,0.562,3.248,0.941c-4.918-4.928-11.363-14.378-12.333-20.644
	c6.487,13.565,13.438,20.404,19.635,23.703c0.459,0.078,0.9,0.141,1.311,0.186c-0.111,0.105-0.279,0.18-0.494,0.23
	c0.418,0.203,0.83,0.391,1.24,0.562c0.176-0.225,0.457-0.393,0.902-0.447c1.461-0.18,1.844,0.521,2.348,0.656
	c-0.238-0.463-0.988-0.719-1.084-2.203c-0.135-2.072,2.652-1.287,2.859-1.342s2.297-2.129,3.15-0.232
	c0.621,1.381,0.043,1.961,0.068,2.488c0.371-0.375,0.377-1.18,1.811-1.76c1.926-0.781,2.043,2.127,2.158,2.305
	c0.115,0.18,2.732,1.527,1.193,2.926c-1.156,1.051-1.893,0.686-2.385,0.873c0.471,0.236,1.246-0.043,2.271,1.139
	C62.994,49.715,60.24,50.746,60.105,50.91z M56.896,52.365c-0.057-0.059-0.102-0.113-0.146-0.17
	c-0.086,0.203-0.168,0.377-0.182,0.551C56.689,52.652,56.787,52.516,56.896,52.365z M42.277,46.26
	c-1.479-0.51-2.01,0.119-2.535,0.15c0.332-0.408,1.152-0.461,1.629-1.949c0.631-1.98-2.309-1.838-2.498-1.936
	c-0.189-0.096-1.744-2.555-3.023-0.916c-0.949,1.219-0.553,1.92-0.686,2.43c-0.285-0.441-0.074-1.234-1.305-2.121
	c-1.687-1.213-2.458,1.629-2.61,1.779c-0.151,0.15-2.958,0.865-1.804,2.592c0.826,1.238,1.603,1.084,2.04,1.365
	c-0.503,0.135-1.185-0.279-2.36,0.607c-1.66,1.252,0.783,2.844,0.878,3.033c0.095,0.191-0.091,3.105,1.903,2.521
	c1.417-0.414,1.489-1.219,1.895-1.553c-0.029,0.525-0.607,1.066-0.104,2.477c0.699,1.957,2.945,0.133,3.156,0.1
	c0.211-0.031,2.955,1.047,2.984-1.031c0.021-1.523-0.748-1.822-0.938-2.312c0.49,0.191,0.816,0.926,2.369,0.893
	c2.078-0.041,1.035-2.76,1.07-2.971C42.373,49.207,44.242,46.938,42.277,46.26z"/>
<path id="eqxiu.com_6_" fill-rule="evenodd" clip-rule="evenodd" fill="#8DC4BD" d="M59.391,47.672c0.9,1.037-0.92,1.719-1.01,1.826
	c-0.088,0.109-0.391,2.01-1.594,1.348c-0.898-0.494-0.842-1.023-1.061-1.295c-0.053,0.344,0.289,0.77-0.227,1.633
	c-0.705,1.178-1.918-0.344-2.049-0.396c-0.133-0.051-2.02,0.25-1.773-1.102c0.178-0.973,0.688-1.09,0.879-1.381
	c-0.344,0.055-0.65,0.492-1.598,0.262c-1.334-0.326-0.264-1.932-0.256-2.072c0.01-0.141-0.861-1.857,0.502-2.025
	c0.965-0.119,1.217,0.344,1.549,0.434c-0.156-0.307-0.65-0.475-0.715-1.455c-0.088-1.371,1.754-0.852,1.889-0.887
	c0.137-0.037,1.518-1.406,2.082-0.154c0.41,0.912,0.027,1.297,0.045,1.645c0.244-0.248,0.25-0.779,1.195-1.164
	c1.273-0.516,1.352,1.406,1.428,1.523c0.074,0.119,1.805,1.01,0.789,1.934c-0.766,0.693-1.252,0.453-1.576,0.576
	C58.201,47.076,58.713,46.893,59.391,47.672z M40.1,46.973c-0.977-0.338-1.328,0.078-1.676,0.098
	c0.221-0.27,0.762-0.303,1.076-1.287c0.418-1.309-1.525-1.213-1.65-1.277c-0.125-0.066-1.152-1.689-1.996-0.605
	c-0.627,0.805-0.365,1.268-0.453,1.604c-0.189-0.291-0.051-0.814-0.863-1.4c-1.113-0.803-1.624,1.076-1.725,1.176
	c-0.1,0.098-1.954,0.57-1.191,1.713c0.546,0.816,1.059,0.715,1.348,0.9c-0.333,0.09-0.783-0.184-1.559,0.402
	c-1.097,0.826,0.517,1.877,0.58,2.004c0.063,0.125-0.061,2.051,1.257,1.666c0.935-0.275,0.983-0.807,1.253-1.025
	c-0.02,0.348-0.402,0.703-0.07,1.635c0.463,1.293,1.947,0.088,2.086,0.066s1.953,0.691,1.973-0.682
	c0.014-1.006-0.494-1.203-0.621-1.527c0.324,0.125,0.541,0.611,1.566,0.59c1.373-0.029,0.684-1.824,0.707-1.963
	C40.164,48.918,41.398,47.418,40.1,46.973z M58.418,54.748c-0.061-0.127,0.111-2.041-1.217-1.693
	c-0.988,0.258-1.062,0.785-1.336,0.998c0.027-0.348,0.457-0.678,0.168-1.637c-0.398-1.314-1.945-0.135-2.084-0.115
	c-0.141,0.018-1.898-0.736-1.988,0.635c-0.064,0.98,0.406,1.211,0.521,1.535c-0.318-0.131-0.51-0.623-1.482-0.631
	c-1.373-0.01-0.73,1.807-0.758,1.945s-1.295,1.592-0.016,2.086c0.91,0.352,1.271-0.041,1.619-0.053
	c-0.227,0.264-0.748,0.316-1.051,1.258c-0.418,1.307,1.492,1.252,1.617,1.32c0.123,0.068,1.129,1.736,1.98,0.658
	c0.623-0.789,0.338-1.256,0.436-1.59c0.182,0.297,0.057,0.814,0.885,1.42c1.107,0.812,1.652-1.033,1.754-1.129
	c0.104-0.096,1.996-0.535,1.238-1.68c-0.572-0.863-1.104-0.746-1.391-0.941c0.338-0.08,0.789,0.223,1.637-0.367
	C60.078,55.982,58.479,54.877,58.418,54.748z"/>
<path id="eqxiu.com_5_" fill-rule="evenodd" clip-rule="evenodd" fill="#72ADA5" d="M39.521,30.471
	c-1.225-1.896-2.16-6.115,5.166-10.811C45.637,28.31,41.768,30.232,39.521,30.471z M42.824,4.201
	c-0.279-0.01-0.57,0.029-0.861,0.101c0.254-0.252,0.492-0.537,0.695-0.855c-0.293,0.064-0.588,0.177-0.875,0.319
	c0.215-0.297,0.406-0.62,0.557-0.964c-0.291,0.137-0.576,0.317-0.848,0.522c0.166-0.328,0.303-0.673,0.391-1.027
	c-0.277,0.202-0.537,0.442-0.779,0.701c0.107-0.343,0.184-0.694,0.207-1.041c-0.248,0.257-0.473,0.545-0.674,0.846
	c0.045-0.341,0.057-0.682,0.014-1.005c-0.209,0.301-0.387,0.624-0.537,0.951c-0.02-0.324-0.074-0.638-0.182-0.921
	c-0.158,0.33-0.281,0.671-0.373,1.009c-0.082-0.291-0.201-0.562-0.367-0.792c-0.504,1.707-0.018,3.45,0.268,3.698
	C39.83,5.865,41.623,5.546,42.824,4.201z M23.66,5.026c-7.921,5.054-6.92,9.611-5.602,11.662
	C20.485,16.436,24.667,14.368,23.66,5.026z M16.289,3.908C16.031,4.157,15.8,4.456,15.597,4.78c0.033-0.437,0.027-0.886-0.036-1.33
	c-0.212,0.321-0.39,0.684-0.537,1.062c-0.037-0.437-0.113-0.875-0.243-1.291c-0.156,0.379-0.273,0.787-0.357,1.202
	c-0.104-0.417-0.247-0.822-0.438-1.19c-0.093,0.417-0.143,0.852-0.159,1.283c-0.167-0.376-0.369-0.73-0.614-1.032
	c-0.025,0.437-0.004,0.877,0.046,1.304C13.038,4.47,12.786,4.185,12.5,3.963c0.044,0.435,0.132,0.859,0.249,1.262
	c-0.265-0.245-0.556-0.448-0.868-0.579c0.553,2.055,2.138,3.525,2.583,3.6c0.455-0.106,2.082-1.551,2.465-3.673
	c-0.292,0.165-0.564,0.386-0.813,0.64C16.216,4.799,16.281,4.359,16.289,3.908z M1.656,34.091c0.252,0.085,0.527,0.127,0.81,0.139
	c-0.297,0.161-0.59,0.356-0.86,0.593c0.284,0.02,0.583-0.004,0.881-0.057c-0.274,0.213-0.535,0.455-0.763,0.729
	c0.302-0.047,0.609-0.135,0.91-0.25c-0.238,0.254-0.455,0.531-0.63,0.83c0.306-0.109,0.607-0.258,0.896-0.43
	c-0.19,0.283-0.353,0.584-0.467,0.893c0.295-0.168,0.577-0.371,0.839-0.59c-0.133,0.297-0.233,0.605-0.281,0.91
	c0.27-0.219,0.519-0.465,0.742-0.721c-0.07,0.299-0.103,0.6-0.082,0.885c0.232-0.258,0.435-0.535,0.61-0.818
	c-0.003,0.287,0.032,0.566,0.121,0.818c0.915-1.418,0.937-3.132,0.745-3.433C4.824,33.377,3.108,33.188,1.656,34.091z
	 M21.467,39.744c0.185,0.094,0.392,0.156,0.608,0.197c-0.248,0.092-0.496,0.209-0.731,0.359c0.217,0.049,0.45,0.064,0.686,0.057
	c-0.236,0.133-0.465,0.291-0.672,0.475c0.238,0,0.486-0.033,0.731-0.088c-0.212,0.17-0.412,0.359-0.581,0.568
	c0.248-0.049,0.498-0.129,0.74-0.229c-0.179,0.197-0.338,0.41-0.461,0.635c0.247-0.096,0.487-0.219,0.715-0.359
	c-0.137,0.215-0.249,0.441-0.32,0.67c0.233-0.137,0.453-0.297,0.655-0.471c-0.088,0.223-0.148,0.451-0.164,0.674
	c0.209-0.172,0.397-0.363,0.564-0.561c-0.035,0.221-0.04,0.438,0,0.645c0.868-0.99,1.081-2.311,0.967-2.564
	C23.993,39.553,22.69,39.213,21.467,39.744z M28.019,15.591c-0.2,0.202-0.378,0.443-0.534,0.704
	c0.019-0.347,0.006-0.703-0.051-1.054c-0.163,0.258-0.297,0.548-0.408,0.851c-0.036-0.346-0.104-0.692-0.215-1.019
	c-0.117,0.303-0.202,0.628-0.261,0.959c-0.09-0.329-0.21-0.648-0.369-0.936c-0.066,0.333-0.098,0.678-0.104,1.021
	c-0.138-0.295-0.305-0.573-0.504-0.808c-0.012,0.347,0.012,0.695,0.06,1.033c-0.181-0.249-0.386-0.47-0.616-0.641
	c0.042,0.344,0.12,0.679,0.22,0.996c-0.214-0.189-0.448-0.345-0.698-0.444c0.474,1.62,1.756,2.758,2.11,2.81
	c0.359-0.093,1.624-1.267,1.891-2.956c-0.229,0.136-0.44,0.316-0.634,0.522C27.977,16.298,28.02,15.949,28.019,15.591z"/>
<path id="eqxiu.com_4_" fill="#E6636A" d="M36.963,27.342c0.758,3.43-0.711,4.371-1.604,4.564
	C34.785,31.198,34.227,29.546,36.963,27.342z M47.463,41.646c0.91,0.074,2.59-0.396,2.865-3.898
	C47.068,39.057,47.121,40.801,47.463,41.646z"/>
<path id="eqxiu.com_3_" fill="#F49AAD" d="M33.857,27.952c-0.367-0.835-0.467-2.576,2.754-3.976
	C36.434,27.484,34.768,28.001,33.857,27.952z M39.014,37.029c-2.348-1.266-7.021-5.537-6.057-15.362
	c-0.74,1.044-0.326,6.412,0.408,8.641C34.643,34.186,38.299,37.311,39.014,37.029z M38.086,37.516
	c-0.432-0.803-1.74-1.957-4.828-0.283C36.129,39.256,37.564,38.264,38.086,37.516z M46.957,32.067
	c0.553-0.726,1.059-2.395-1.746-4.511C44.562,31.009,46.061,31.902,46.957,32.067z M45.889,35.834
	c0.215-0.885,0.01-2.618-3.408-3.431C43.271,35.826,45.002,36.043,45.889,35.834z M38.57,30.413
	c-2.596,2.367-1.938,3.981-1.32,4.653C38.127,34.818,39.537,33.791,38.57,30.413z M32.08,22.893c0.315-0.855,0.312-2.6-2.987-3.804
	C29.48,22.58,31.174,22.997,32.08,22.893z M47.18,37.424c0.857,0.314,2.602,0.307,3.797-2.998
	C47.486,34.824,47.074,36.52,47.18,37.424z M34.953,34.646c-0.275-0.868-1.348-2.244-4.693-1.17
	C32.709,35.996,34.303,35.285,34.953,34.646z M32.158,26.809c-0.054-0.91-0.756-2.507-4.262-2.287
	C29.652,27.564,31.37,27.267,32.158,26.809z M55.736,49.266c0.164-1.463-1.922-2.957-2.023-3.172
	c-0.051-0.105-0.029-0.762-0.135-1.5c-0.178-1.238-0.715-2.711-2.547-2.232c-2.178,0.566-2.338,1.729-2.943,2.197
	c0.061-0.764,1.006-1.492,0.369-3.604c-0.371-1.229-1.199-1.463-2.051-1.328c-0.072-2.348,0.371-5.168,1.748-8.476
	c-1.012,0.782-2.184,6.039-2.131,8.384c0,0.057,0.008,0.115,0.01,0.172c-1.031,0.279-2.008,0.973-2.166,0.992
	c-0.307,0.039-4.182-1.619-4.377,1.398c-0.141,2.16,0.893,2.67,1.148,3.383c-0.701-0.289-1.123-1.373-3.264-1.389
	c-1.35-0.01-1.814,0.783-1.922,1.689c-0.133,1.123,0.283,2.424,0.25,2.594c-0.031,0.164-0.846,1.164-1.162,2.223
	c-0.271,0.912-0.174,1.869,1.131,2.373c2.002,0.773,2.799-0.092,3.564-0.115c-0.5,0.582-1.646,0.693-2.312,2.768
	c-0.924,2.881,3.287,2.76,3.559,2.91c0.271,0.148,2.488,3.822,4.361,1.447c1.373-1.738,0.748-2.766,0.961-3.5
	c0.398,0.654,0.127,1.791,1.947,3.129c0.465,0.34,0.883,0.467,1.258,0.451c0.465-1.137,1.158-1.244,1.477-1.613
	c-0.527,0.016-1.074,0.611-2.449,0.08c-1.939-0.75-0.018-2.949,0.021-3.16c0.041-0.209-0.93-2.957,1.148-2.941
	c1.471,0.012,1.76,0.754,2.242,0.953c-0.176-0.49-0.887-0.84-0.789-2.324c0.135-2.074,2.797-0.934,3.008-0.961
	c0.139-0.018,1.191-0.785,2.07-0.758C55.742,49.312,55.734,49.289,55.736,49.266z"/>
<path id="eqxiu.com_2_" fill="#E87F93" d="M41.818,36.355c3.418,0.812,3.623,2.545,3.41,3.432
	C44.34,39.996,42.609,39.777,41.818,36.355z M52.256,30.862c-3.508,0.188-4.02,1.855-3.969,2.766
	C49.123,33.993,50.865,34.088,52.256,30.862z M51.494,26.647c-3.234,1.375-3.146,3.116-2.787,3.954
	C49.617,30.658,51.287,30.154,51.494,26.647z M28.417,28.494c1.755,3.043,3.474,2.746,4.262,2.287
	C32.625,29.871,31.923,28.274,28.417,28.494z M50.779,47.475c-0.088-0.186,0.162-2.971-1.771-2.467
	c-1.438,0.375-1.545,1.143-1.943,1.453c0.039-0.506,0.664-0.986,0.244-2.381c-0.578-1.914-2.83-0.195-3.033-0.17
	s-2.764-1.07-2.893,0.924c-0.094,1.428,0.59,1.764,0.758,2.234c-0.463-0.191-0.74-0.906-2.156-0.916
	c-1.998-0.016-1.064,2.627-1.104,2.83c-0.037,0.201-1.885,2.316-0.02,3.037c1.322,0.51,1.848-0.062,2.354-0.078
	c-0.33,0.385-1.088,0.457-1.527,1.828c-0.609,1.902,2.172,1.824,2.352,1.924c0.18,0.098,1.645,2.525,2.881,0.957
	c0.908-1.15,0.494-1.828,0.635-2.314c0.264,0.434,0.084,1.186,1.287,2.068c0.178,0.129,0.344,0.205,0.502,0.25
	c0.252-0.633,0.695-1.186,0.715-1.287c0.041-0.209-0.93-2.957,1.148-2.941c1.426,0.012,1.742,0.707,2.199,0.93
	c0.006-0.014,0.006-0.029,0.01-0.043c0.078-0.283,0.037-0.611-0.221-0.998c-0.176-0.266-0.348-0.459-0.518-0.613
	c-0.625-0.578-1.176-0.531-1.506-0.754c0.363-0.086,0.814,0.125,1.52-0.098c0.139-0.824,0.74-1.047,1.375-1.041
	C52.473,48.771,50.854,47.629,50.779,47.475z M33.807,23.998c0.906,0.104,2.602-0.312,2.988-3.804
	C33.496,21.398,33.492,23.142,33.807,23.998z M34.836,16.385c-2.691,2.258-2.1,3.899-1.511,4.595
	C34.213,20.768,35.662,19.799,34.836,16.385z"/>
<path id="eqxiu.com_1_" fill-rule="evenodd" clip-rule="evenodd" fill="#F5E8BC" d="M57.094,56.27
	c0.184,1.432-0.83,2.74-2.262,2.924c-1.432,0.182-2.74-0.83-2.924-2.264c-0.182-1.432,0.83-2.74,2.262-2.922
	C55.604,53.824,56.912,54.838,57.094,56.27z M35.453,45.781c-0.521,0.082-1.021,0.318-1.426,0.717
	c-1.025,1.016-1.034,2.672-0.018,3.697c0.16,0.162,0.342,0.291,0.531,0.402c0.316-1.059,1.131-2.059,1.162-2.223
	C35.736,48.205,35.32,46.904,35.453,45.781z M55.736,49.266c1.371-0.385,2.188-1.795,1.824-3.176
	c-0.365-1.396-1.795-2.232-3.191-1.865c-0.293,0.076-0.553,0.209-0.791,0.369c0.105,0.738,0.084,1.395,0.135,1.5
	C53.814,46.309,55.9,47.803,55.736,49.266z M44.6,46.395c-2.084,0.266-3.559,2.17-3.293,4.254s2.17,3.559,4.254,3.293
	s3.559-2.172,3.293-4.254C48.588,47.602,46.684,46.129,44.6,46.395z"/>
</svg>
