<?xml version="1.0" encoding="utf-8"?>
<!-- Generator: Adobe Illustrator 16.0.0, SVG Export Plug-In . SVG Version: 6.00 Build 0)  -->
<!DOCTYPE svg PUBLIC "-//W3C//DTD SVG 1.1//EN" "http://www.w3.org/Graphics/SVG/1.1/DTD/svg11.dtd">
<svg version="1.1" id="eqxiu.com" xmlns="http://www.w3.org/2000/svg" xmlns:xlink="http://www.w3.org/1999/xlink" x="0px" y="0px"
	 width="69.912px" height="49.212px" viewBox="0 0 69.912 49.212" enable-background="new 0 0 69.912 49.212" xml:space="preserve">
<path id="eqxiu.com_6_" fill="#70A8A0" d="M24.85,31.119c-0.735,0.347-2.288,0.479-3.615-2.364
	C24.37,28.83,24.872,30.305,24.85,31.119z M0.849,9.845c-0.06,6.832,3.115,8.028,4.887,8.037C6.543,16.304,6.942,12.935,0.849,9.845
	z M48.689,20.983c-6.369,0.118-7.403,3.107-7.367,4.76C42.813,26.455,45.962,26.74,48.689,20.983z M7.386,29.186
	c6.246,0.735,7.657-2.05,7.841-3.672C13.864,24.617,10.82,23.918,7.386,29.186z M15.784,41.708c2.429-1.987,1.919-3.459,1.401-4.086
	C16.391,37.799,15.085,38.649,15.784,41.708z M55.064,36.097c0.813-0.006,2.27-0.562,2.231-3.698
	C54.501,33.828,54.69,35.374,55.064,36.097z M43.729,32.61c-0.64,0.501-1.458,1.827,0.484,4.292
	C45.558,34.067,44.466,32.956,43.729,32.61z M58.817,37.501c-0.314,0.752-0.378,2.309,2.521,3.508
	C61.125,37.879,59.629,37.443,58.817,37.501z M59.815,14.072c-4.618,4.387-3.364,7.29-2.221,8.485
	C59.176,22.075,61.691,20.159,59.815,14.072z M45.86,27.837c-0.061,1.792,1.026,5.048,7.937,5.257
	C50.91,26.811,47.49,27.081,45.86,27.837z M40.706,47.027c-0.221-0.136-0.479-0.19-0.714-0.175c-0.021-0.002-0.034-0.006-0.06-0.006
	c-0.163,0.006-0.419,0.063-0.66,0.163c-2.282-3.402-3.128-6.999-3.37-9.887c-0.364-0.113-0.706-0.265-0.982-0.397
	c0.062,0.812,0.155,1.584,0.299,2.254c0.468,2.185,2.375,6.336,3.807,8.155c-0.248,0.148-0.41,0.347-0.493,0.506
	c-0.166,0.201-0.279,0.475-0.276,0.766c0.004,0.482,0.309,0.801,0.678,0.71c0.126-0.032,0.236-0.117,0.336-0.221
	c0.297,0.295,0.691,0.407,0.994,0.239c0.306-0.172,0.417-0.572,0.316-0.984c0.15-0.029,0.289-0.081,0.385-0.176
	C41.236,47.703,41.12,47.28,40.706,47.027z"/>
<path id="eqxiu.com_5_" fill="#8ABEB7" d="M20.811,25.677c-1.629,0.183-4.67-0.575-5.35-6.851
	C21.385,21.008,21.382,24.142,20.811,25.677z M19.428,40.502c2.155-2.28,1.46-3.674,0.867-4.232
	C19.53,36.549,18.343,37.559,19.428,40.502z M46.71,32.835c0.768,0.272,2.326,0.252,3.368-2.708
	C46.963,30.51,46.61,32.026,46.71,32.835z M9.155,33.689c-0.104,3.135,1.341,3.72,2.154,3.745
	C11.698,36.719,11.918,35.176,9.155,33.689z M54.682,25.784c0.233,1.63,1.739,4.397,8.018,3.473
	C59.081,24.044,56.031,24.839,54.682,25.784z M64.322,36.3c0.586,0.566,2.013,1.192,4.186-1.068
	C65.515,34.288,64.565,35.522,64.322,36.3z M62.206,37.423c-0.187,0.792,0.008,2.338,3.064,3.045
	C64.544,37.416,62.998,37.231,62.206,37.423z M4.888,42.409c2.973-1.002,3.015-2.56,2.751-3.331
	C6.833,38.965,5.311,39.299,4.888,42.409z M49.335,35.867c-0.535,0.611-1.09,2.066,1.277,4.125
	C51.406,36.957,50.125,36.068,49.335,35.867z M45.342,41.975c-0.222-0.136-0.48-0.189-0.717-0.175
	c-0.02-0.001-0.033-0.006-0.059-0.006c-0.163,0.006-0.417,0.063-0.658,0.164c-1.796-2.677-2.854-5.151-3.426-7.379
	c-0.179-0.044-0.347-0.091-0.496-0.145c0.615,2.268,2.342,5.957,3.674,7.648c-0.247,0.148-0.408,0.344-0.491,0.502
	c-0.167,0.2-0.281,0.475-0.28,0.768c0.006,0.484,0.308,0.802,0.678,0.71c0.126-0.031,0.237-0.116,0.337-0.22
	c0.297,0.296,0.691,0.408,0.995,0.238c0.307-0.17,0.418-0.571,0.316-0.983c0.149-0.03,0.289-0.081,0.386-0.177
	C45.87,42.653,45.753,42.23,45.342,41.975z M30.426,35.865c-0.352,2.517-1.029,5.264-2.161,8.146
	c-0.244-0.048-0.49-0.057-0.645-0.033c-0.026,0.004-0.039,0.011-0.059,0.017c-0.233,0.03-0.477,0.131-0.668,0.305
	c-0.358,0.326-0.395,0.763-0.079,0.978c0.113,0.076,0.259,0.1,0.411,0.102c-0.022,0.424,0.159,0.797,0.492,0.908
	c0.329,0.111,0.696-0.073,0.934-0.419c0.117,0.084,0.242,0.147,0.372,0.154c0.38,0.022,0.618-0.349,0.532-0.822
	c-0.051-0.286-0.212-0.533-0.409-0.699c-0.11-0.141-0.309-0.308-0.582-0.408c0.925-1.774,1.872-5.324,2.148-7.698
	C30.595,36.252,30.495,36.083,30.426,35.865z"/>
<path id="eqxiu.com_4_" fill="#A8D4CE" d="M43.067,26.822c-0.524-0.251-0.954-0.327-1.322-0.338
	c-0.239-0.086-0.447-0.176-0.596-0.27c0.088-0.033,0.181-0.071,0.275-0.113c4.009,1.266,12.838,1.737,22.344-8.292
	c-0.447,1.831-6.823,6.552-10.011,7.887C50.027,27.255,45.653,27.29,43.067,26.822z M8.055,37.682
	c0.388-0.715,0.608-2.257-2.155-3.744C5.797,37.074,7.241,37.658,8.055,37.682z M1.153,37.513c2.385,2.039,3.743,1.275,4.27,0.654
	C5.106,37.417,4.039,36.283,1.153,37.513z M27.653,27.658c-1.572,3.569-7.261,10.874-21.696,10.603
	c1.606,0.957,9.386-0.265,12.55-1.594C24.012,34.358,28.147,28.668,27.653,27.658z M8.649,21.574
	C7.861,20.144,5.497,18.105,0,21.161C5.18,24.727,7.728,22.922,8.649,21.574z M12.347,42.516c2.611-1.741,2.246-3.255,1.792-3.931
	C13.331,38.685,11.948,39.403,12.347,42.516z M8.854,42.562c2.768-1.477,2.552-3.02,2.167-3.737
	C10.207,38.847,8.76,39.427,8.854,42.562z M17.501,36.067c0.213-0.786,0.071-2.337-2.961-3.147
	C15.164,35.995,16.703,36.231,17.501,36.067z M54.249,19.045c-5.911,2.375-5.815,5.537-5.192,7.069
	C50.704,26.248,53.749,25.395,54.249,19.045z M12.034,33.598c0.27,3.126,1.773,3.535,2.583,3.463
	C14.918,36.304,14.954,34.746,12.034,33.598z M68.722,9.554c-6.054,3.297-5.555,6.683-4.691,8.252
	C65.819,17.744,68.984,16.443,68.722,9.554z M28.459,25.086c0-0.042-0.005-0.088-0.007-0.132c-0.364-0.288-0.739-0.717-1.047-1.501
	c-0.168-0.428-0.188-0.781-0.121-1.081c-1.032-1.012-2.909-1.824-6.261-1.788C23.892,26.208,27.003,25.835,28.459,25.086z
	 M22.549,38.69c1.991-2.425,1.2-3.768,0.569-4.282C22.375,34.739,21.261,35.828,22.549,38.69z M12.248,22.402
	c1.098-1.217,2.257-4.128-2.444-8.341C8.12,20.146,10.668,21.971,12.248,22.402z M16.142,25.398c3.26,1.254,6.974,1.342,9.566,0.987
	c0.122-0.141,0.292-0.27,0.496-0.388c-4.506,0.789-12.011,0.037-20.207-8.12C6.493,19.678,12.944,24.169,16.142,25.398z
	 M24.024,27.291c-1.635-0.701-5.032-0.869-7.708,5.438c0.335-0.02,0.646-0.052,0.953-0.085c0.922,2.21,2.253,2.27,2.955,2.055
	c0.104-0.6-0.032-1.608-1.401-2.296c0.392-0.082,0.751-0.177,1.088-0.282c1.067,1.277,2.128,1.145,2.7,0.876
	c0.013-0.467-0.15-1.152-0.882-1.666C23.727,30.12,24.096,28.411,24.024,27.291z M52.564,36.907
	c-0.455,0.675-0.816,2.189,1.795,3.929C54.754,37.724,53.372,37.006,52.564,36.907z M50.639,41.341
	c-0.254-0.054-0.517-0.018-0.734,0.076c-0.019,0.005-0.032,0.005-0.055,0.014c-0.151,0.06-0.36,0.209-0.553,0.383
	c-3.548-2.628-5.685-5.364-6.926-7.88c-0.08,0.139-0.174,0.265-0.286,0.372c0.207,0.441,0.431,0.875,0.688,1.291
	c1.174,1.902,4.361,5.176,6.32,6.409c-0.18,0.217-0.265,0.451-0.292,0.627c-0.094,0.247-0.111,0.549-0.009,0.828
	c0.166,0.454,0.559,0.652,0.878,0.442c0.107-0.071,0.183-0.188,0.242-0.32c0.378,0.179,0.788,0.152,1.017-0.109
	c0.231-0.264,0.201-0.678-0.031-1.032c0.131-0.078,0.244-0.173,0.304-0.295C51.366,41.802,51.115,41.442,50.639,41.341z
	 M55.689,37.567c-0.385,0.716-0.601,2.261,2.168,3.737C57.949,38.167,56.502,37.588,55.689,37.567z M46.342,34.288
	c-0.576,0.574-1.23,1.987,0.989,4.206C48.332,35.521,47.116,34.545,46.342,34.288z M23.284,41.847
	c-0.102-0.126-0.302-0.295-0.527-0.426c0.7-2.033,1.525-3.748,2.42-5.204c0.094,0.187,0.197,0.379,0.319,0.583
	c0.634-0.992,0.897-1.786,0.943-2.414c0.23-0.296,0.506-0.599,0.803-0.896c-0.144-0.088-0.261-0.201-0.357-0.33
	c-0.063,0.061-0.129,0.124-0.176,0.178c-0.098,0.114-0.206,0.262-0.309,0.395c-0.127-0.646-0.513-1.043-0.842-1.252
	c-0.612,0.363-1.43,1.333-0.561,3.356c-1.079,1.827-2.113,4.014-2.49,5.461c-0.265-0.107-0.518-0.117-0.694-0.088
	c-0.262-0.013-0.551,0.062-0.783,0.241c-0.383,0.296-0.453,0.73-0.157,0.971c0.101,0.082,0.235,0.118,0.378,0.135
	c-0.057,0.415,0.094,0.797,0.411,0.938c0.321,0.141,0.707-0.013,0.975-0.343c0.114,0.102,0.238,0.181,0.373,0.2
	c0.378,0.053,0.645-0.295,0.598-0.777c-0.025-0.257-0.137-0.496-0.291-0.675C23.305,41.881,23.3,41.868,23.284,41.847z
	 M43.224,30.71c-0.082,0.085-0.156,0.161-0.22,0.225c1.821,1.885,4.803,4.119,8.149,5.151c3.28,1.011,11.142,1.468,12.646,0.358
	C52.721,37.744,46.41,34.033,43.224,30.71z M63.434,32.138c-2.604,1.75-2.234,3.262-1.778,3.937
	C62.464,35.971,63.843,35.249,63.434,32.138z M61.2,21.615c0.97,1.333,3.593,3.078,8.712-0.671
	C64.277,18.023,61.954,20.15,61.2,21.615z M33.718,43.516c-0.018-0.01-0.028-0.019-0.054-0.028
	c-0.153-0.053-0.411-0.093-0.672-0.088c-0.536-2.428-0.708-4.582-0.633-6.49c-0.123,0.012-0.247,0.018-0.369,0.017
	c-0.007,2.241,0.255,4.943,0.726,6.499c-0.298,0.049-0.542,0.185-0.675,0.307c-0.215,0.129-0.407,0.336-0.506,0.596
	c-0.172,0.452-0.006,0.858,0.372,0.908c0.129,0.017,0.263-0.022,0.394-0.082c0.167,0.383,0.495,0.632,0.839,0.584
	c0.348-0.048,0.597-0.38,0.653-0.801c0.149,0.027,0.297,0.03,0.422-0.023c0.35-0.151,0.396-0.587,0.104-0.975
	C34.164,43.733,33.944,43.588,33.718,43.516z M29.595,33.425c-0.65,1.396-1.548,2.959-2.76,4.72
	c-0.245-0.104-0.505-0.163-0.67-0.169c-0.025,0-0.039,0.004-0.059,0.006c-0.236-0.015-0.495,0.039-0.717,0.175
	c-0.412,0.254-0.527,0.678-0.259,0.945c0.097,0.096,0.236,0.147,0.386,0.177c-0.102,0.412,0.009,0.812,0.315,0.983
	c0.303,0.169,0.698,0.058,0.995-0.238c0.101,0.104,0.211,0.189,0.338,0.22c0.369,0.092,0.673-0.227,0.677-0.71
	c0.002-0.294-0.113-0.57-0.281-0.771c-0.084-0.158-0.244-0.353-0.49-0.5c0.87-1.104,1.907-3.062,2.697-4.921
	C29.71,33.371,29.657,33.399,29.595,33.425z M39.439,39.954c-0.02-0.006-0.031-0.013-0.057-0.017
	c-0.154-0.024-0.4-0.015-0.645,0.033c-0.34-0.857-0.672-1.873-0.993-2.941c-0.122,0.087-0.256,0.145-0.396,0.186
	c0.336,1.105,0.713,2.117,1.089,2.837c-0.271,0.099-0.464,0.262-0.576,0.402c-0.201,0.166-0.364,0.415-0.415,0.703
	c-0.086,0.476,0.152,0.844,0.532,0.824c0.13-0.007,0.255-0.07,0.372-0.154c0.237,0.346,0.605,0.529,0.934,0.419
	c0.332-0.111,0.515-0.484,0.492-0.908c0.152-0.001,0.299-0.025,0.412-0.102c0.315-0.214,0.279-0.651-0.079-0.979
	C39.918,40.083,39.673,39.982,39.439,39.954z M54.736,31.969c-2.938,1.102-2.927,2.66-2.639,3.42
	C52.907,35.474,54.417,35.09,54.736,31.969z M58.393,36.146c0.807-0.104,2.187-0.827,1.776-3.938
	C57.566,33.958,57.937,35.471,58.393,36.146z M49.253,34.295c0.797,0.162,2.336-0.08,2.948-3.157
	C49.173,31.958,49.037,33.51,49.253,34.295z M44.299,31.186c0.768,0.273,2.325,0.252,3.366-2.707
	C44.553,28.86,44.198,30.377,44.299,31.186z"/>
<path id="eqxiu.com_3_" fill="#EB9BAA" d="M8.148,2.844C6.987,4.752,5.826,6.66,4.665,8.567C4.455,8.44,4.246,8.31,4.036,8.179
	c0.57-0.91,1.14-1.819,1.709-2.728C5.21,5.116,4.68,4.77,4.154,4.414C3.553,5.302,2.951,6.191,2.349,7.079
	C2.144,6.94,1.938,6.799,1.734,6.657C3.011,4.824,4.288,2.992,5.564,1.16c0.18,0.125,0.361,0.249,0.542,0.372
	c-0.55,0.812-1.101,1.625-1.652,2.438C4.975,4.324,5.5,4.666,6.03,4.998c0.521-0.832,1.042-1.664,1.563-2.496
	C7.777,2.617,7.963,2.731,8.148,2.844z M10.604,4.227c-0.675,2.177-1.298,4.377-1.867,6.596c-0.216-0.108-0.432-0.218-0.647-0.329
	c0.142-0.485,0.287-0.97,0.434-1.454C8.053,8.794,7.585,8.54,7.12,8.278C6.794,8.665,6.467,9.05,6.137,9.435
	C5.932,9.317,5.727,9.199,5.522,9.08C5.525,9.075,5.528,9.07,5.531,9.064c1.553-1.679,3.057-3.393,4.514-5.141
	C10.23,4.026,10.417,4.127,10.604,4.227z M9.803,5.011c-0.769,0.96-1.551,1.91-2.346,2.853c0.409,0.228,0.819,0.451,1.23,0.667
	C9.045,7.352,9.417,6.179,9.803,5.011z M29.144,16.462c-0.099-0.098-0.141-0.216-0.127-0.355c0.173-1.909,0.345-3.818,0.518-5.726
	c0.013-0.14,0.068-0.249,0.171-0.329c0.101-0.08,0.226-0.114,0.371-0.103c0.657,0.052,1.314,0.092,1.973,0.119
	c0.147,0.006,0.267,0.055,0.358,0.146c0.091,0.092,0.136,0.208,0.131,0.348c-0.058,1.915-0.115,3.831-0.173,5.746
	c-0.004,0.14-0.062,0.252-0.171,0.337c-0.111,0.085-0.249,0.124-0.416,0.118c-0.747-0.031-1.492-0.075-2.237-0.135
	C29.375,16.615,29.242,16.559,29.144,16.462z M29.725,16.114c0.646,0.05,1.291,0.088,1.937,0.116
	c0.081-1.881,0.162-3.761,0.242-5.642c-0.581-0.024-1.162-0.06-1.742-0.104C30.017,12.361,29.871,14.238,29.725,16.114z
	 M13.502,9.932c-0.131,0.042-0.271,0.033-0.421-0.031c-0.562-0.238-1.123-0.486-1.68-0.745c-0.373,0.804-0.746,1.608-1.118,2.413
	c-0.221-0.103-0.44-0.206-0.66-0.311c0.966-2.015,1.931-4.028,2.896-6.042c0.706,0.338,1.417,0.659,2.136,0.963
	c0.139,0.058,0.234,0.146,0.291,0.265C15,6.563,15.002,6.688,14.949,6.817c-0.391,0.952-0.781,1.903-1.172,2.855
	C13.724,9.802,13.632,9.888,13.502,9.932z M14.333,6.615c-0.487-0.207-0.973-0.423-1.455-0.647
	c-0.419,0.903-0.837,1.805-1.255,2.708c0.512,0.237,1.025,0.465,1.542,0.686C13.555,8.445,13.944,7.53,14.333,6.615z M37.928,16.676
	c-0.074-1.071-0.147-2.141-0.221-3.211c0.605-0.042,1.21-0.093,1.812-0.155c0.11,1.067,0.22,2.134,0.329,3.202
	c0.236-0.024,0.473-0.049,0.707-0.077c-0.257-2.218-0.513-4.437-0.769-6.656c-0.208,0.024-0.416,0.047-0.623,0.068
	c0.1,0.977,0.2,1.954,0.302,2.93c-0.597,0.062-1.196,0.113-1.796,0.154c-0.065-0.979-0.133-1.959-0.201-2.938
	c-0.208,0.014-0.415,0.027-0.624,0.039c0.125,2.229,0.249,4.459,0.373,6.689C37.456,16.707,37.692,16.692,37.928,16.676z
	 M44.426,15.852c-0.031-0.173-0.063-0.345-0.096-0.518c-0.625,0.117-1.251,0.222-1.877,0.316c-0.131-0.861-0.261-1.721-0.392-2.582
	c0.535-0.081,1.071-0.17,1.604-0.268c-0.032-0.176-0.063-0.35-0.096-0.526c-0.529,0.097-1.058,0.185-1.588,0.265
	c-0.124-0.824-0.249-1.648-0.375-2.472c0.556-0.084,1.108-0.177,1.661-0.279c-0.032-0.173-0.063-0.346-0.096-0.518
	c-0.752,0.14-1.508,0.262-2.265,0.367c0.306,2.212,0.611,4.425,0.919,6.636C42.696,16.153,43.563,16.013,44.426,15.852z
	 M34.438,16.807c0.237-0.001,0.474-0.004,0.711-0.01c-0.039-2.057-0.079-4.114-0.119-6.171c0.367-0.007,0.734-0.018,1.103-0.034
	c-0.009-0.175-0.016-0.35-0.023-0.525c-0.938,0.038-1.877,0.05-2.815,0.036c-0.003,0.175-0.007,0.351-0.009,0.526
	c0.37,0.005,0.742,0.007,1.112,0.004C34.411,12.692,34.425,14.749,34.438,16.807z M60.078,9.104
	c0.166,0.312,0.181,0.634,0.035,0.967s-0.413,0.598-0.801,0.792c-0.559,0.279-1.121,0.547-1.688,0.807
	c-0.93-2.03-1.859-4.061-2.791-6.091c0.499-0.229,0.994-0.466,1.487-0.712c0.344-0.172,0.677-0.216,1.004-0.131
	c0.328,0.084,0.576,0.281,0.743,0.593C58.738,6.587,59.408,7.846,60.078,9.104z M59.419,9.381c-0.637-1.233-1.274-2.468-1.911-3.701
	c-0.101-0.195-0.25-0.318-0.446-0.37c-0.197-0.051-0.4-0.024-0.614,0.082c-0.27,0.133-0.538,0.264-0.809,0.392
	c0.807,1.701,1.612,3.402,2.418,5.103c0.289-0.137,0.576-0.276,0.862-0.418c0.25-0.124,0.424-0.286,0.518-0.483
	C59.532,9.789,59.525,9.587,59.419,9.381z M53.795,11.091c-0.067-0.172-0.194-0.302-0.381-0.39
	c-0.936-0.439-1.847-0.902-2.734-1.389c-0.151-0.446-0.302-0.892-0.453-1.338c0.492-0.167,0.98-0.341,1.468-0.522
	c0.177,0.471,0.352,0.941,0.527,1.411c0.207-0.077,0.413-0.155,0.617-0.235c-0.188-0.484-0.375-0.968-0.563-1.452
	c-0.05-0.131-0.136-0.22-0.254-0.27c-0.119-0.049-0.247-0.047-0.387,0.005c-0.562,0.211-1.127,0.412-1.693,0.603
	c-0.14,0.048-0.242,0.128-0.307,0.241c-0.062,0.115-0.073,0.238-0.03,0.372c0.139,0.43,0.279,0.86,0.418,1.29
	c0.059,0.177,0.179,0.316,0.362,0.418c0.885,0.493,1.794,0.964,2.728,1.41c0.187,0.499,0.372,0.998,0.559,1.496
	c-0.542,0.203-1.086,0.396-1.633,0.582c-0.176-0.521-0.353-1.041-0.528-1.561c-0.219,0.074-0.436,0.146-0.655,0.217
	c0.175,0.539,0.35,1.077,0.524,1.616c0.043,0.133,0.131,0.225,0.262,0.275c0.13,0.051,0.276,0.049,0.436-0.004
	c0.643-0.216,1.283-0.444,1.919-0.684c0.159-0.06,0.272-0.15,0.339-0.271c0.065-0.12,0.072-0.246,0.022-0.376
	C54.169,12.055,53.983,11.574,53.795,11.091z M59.903,2.871c1.527,1.691,3.104,3.347,4.727,4.966
	c-0.206,0.132-0.412,0.262-0.618,0.391c-0.346-0.37-0.688-0.741-1.03-1.114c-0.453,0.28-0.911,0.554-1.371,0.82
	c0.167,0.477,0.331,0.956,0.493,1.436c-0.204,0.117-0.409,0.231-0.615,0.346c-0.002-0.005-0.006-0.009-0.008-0.015
	c-0.655-2.19-1.364-4.359-2.125-6.503C59.539,3.091,59.72,2.981,59.903,2.871z M60.167,3.96c0.434,1.151,0.853,2.309,1.258,3.473
	c0.402-0.234,0.803-0.473,1.2-0.718C61.793,5.806,60.975,4.888,60.167,3.96z M65.462,4.137c-0.206-0.632-0.344-1.092-0.407-1.381
	c-0.277-0.916-0.568-1.825-0.875-2.726C64.176,0.026,64.169,0.016,64.158,0c-0.178,0.133-0.354,0.266-0.531,0.396
	c0.393,1.099,0.766,2.208,1.12,3.325c-0.939-0.705-1.861-1.426-2.766-2.163c-0.183,0.124-0.366,0.246-0.551,0.367
	c0.013,0.019,0.021,0.03,0.022,0.032c0.743,0.592,1.499,1.173,2.269,1.741c0.032,0.023,0.229,0.161,0.594,0.407
	c0.216,0.142,0.406,0.288,0.569,0.439c0.493,0.71,0.987,1.419,1.481,2.129c0.202-0.141,0.405-0.283,0.606-0.428
	C66.469,5.543,65.965,4.84,65.462,4.137z M47.879,8.159c0.239,0.662,0.48,1.322,0.724,1.983c0.132-0.038,0.262-0.076,0.392-0.116
	c-0.155-0.687-0.312-1.373-0.471-2.059C48.311,8.033,48.096,8.097,47.879,8.159z M18.562,7.781c0.064,0.113,0.075,0.237,0.032,0.371
	c-0.316,0.979-0.633,1.958-0.949,2.937c-0.043,0.134-0.127,0.227-0.253,0.28c-0.126,0.053-0.266,0.055-0.419,0.004
	c-0.576-0.192-1.149-0.395-1.72-0.607c-0.31,0.831-0.618,1.661-0.928,2.491C14.1,13.172,13.874,13.087,13.65,13
	c0.806-2.083,1.612-4.165,2.418-6.248c0.724,0.28,1.453,0.543,2.187,0.789C18.397,7.587,18.499,7.667,18.562,7.781z M17.97,8
	c-0.499-0.168-0.996-0.345-1.49-0.528c-0.347,0.932-0.694,1.864-1.041,2.796c0.523,0.195,1.049,0.382,1.577,0.56
	C17.334,9.885,17.652,8.942,17.97,8z M20.022,11.578c-0.041-1.169-0.059-2.337-0.056-3.501c-0.206-0.061-0.411-0.122-0.616-0.186
	c-0.007,0.022-0.011,0.035-0.011,0.037c0.009,0.949,0.035,1.899,0.075,2.852c0.001,0.039,0.019,0.277,0.056,0.715
	c0.025,0.256,0.03,0.495,0.016,0.717c-0.234,0.833-0.467,1.665-0.702,2.498c0.231,0.065,0.462,0.127,0.692,0.189
	c0.223-0.835,0.446-1.67,0.669-2.506c0.35-0.563,0.612-0.963,0.791-1.196c0.52-0.8,1.024-1.605,1.515-2.417
	c0.001-0.005,0.004-0.018,0.009-0.037c-0.206-0.049-0.412-0.1-0.617-0.152C21.256,9.595,20.649,10.591,20.022,11.578z
	 M25.896,15.581c0.63-1.302,1.229-2.613,1.797-3.934c-0.079,0.283-0.124,0.455-0.131,0.515c-0.175,1.403-0.353,2.807-0.527,4.209
	c0.222,0.027,0.444,0.055,0.667,0.08c0.251-2.219,0.502-4.438,0.752-6.658c-0.191-0.021-0.385-0.044-0.578-0.069
	c-0.56,1.395-1.152,2.78-1.777,4.156c-0.026,0.083-0.042,0.146-0.048,0.188c0.009-0.105,0.013-0.169,0.009-0.194
	c-0.197-1.498-0.361-2.996-0.491-4.493c-0.192-0.032-0.383-0.067-0.575-0.102c-0.407,2.196-0.812,4.392-1.219,6.588
	c0.221,0.041,0.442,0.08,0.663,0.118c0.24-1.394,0.481-2.787,0.722-4.181c0.01-0.057,0.018-0.233,0.025-0.531
	c0.159,1.429,0.35,2.858,0.573,4.286C25.802,15.568,25.849,15.575,25.896,15.581z M46.945,12.028
	c0.093-0.019,0.163-0.034,0.208-0.045c0.479-0.121,0.674-0.342,0.59-0.654c-0.221-0.818-0.439-1.637-0.658-2.456
	c-0.037-0.135-0.112-0.233-0.225-0.295c-0.112-0.061-0.242-0.074-0.385-0.037c-0.768,0.197-1.539,0.375-2.312,0.536
	c0.452,2.187,0.904,4.374,1.357,6.561c0.232-0.048,0.466-0.098,0.698-0.149c-0.442-2.01-0.885-4.02-1.327-6.029
	c0.531-0.117,1.062-0.242,1.59-0.377c0.203,0.797,0.406,1.594,0.607,2.39c-0.384,0.098-0.77,0.191-1.156,0.281
	c-0.021,0.045-0.043,0.091-0.063,0.138c0.722,1.062,1.473,2.11,2.253,3.145c0.243-0.062,0.486-0.126,0.728-0.192
	c-0.726-0.916-1.425-1.841-2.104-2.773C46.788,12.06,46.853,12.046,46.945,12.028z M43.644,27.145
	c-0.204-0.132-1.531-0.65-1.899-0.662c-0.346-0.011-1.257,0.065-1.315,0.056c-0.001,0-0.003,0-0.005,0
	c0.002-0.001,0.005-0.002,0.007-0.004c0.06-0.046,0.898-0.393,0.993-0.434c0.485-0.21,1.044-0.57,1.592-1.494
	c1.374-2.321-2.391-2.992-2.603-3.17c-0.209-0.179-1.459-3.726-3.559-2.034c-1.505,1.211-1.217,2.198-1.529,2.794
	c-0.233-0.634,0.223-1.564-1.059-2.981c-1.808-2.001-3.585,1.34-3.82,1.485c-0.196,0.121-2.83,0.211-3.162,1.671
	c-0.067,0.3-0.047,0.653,0.121,1.081c0.308,0.784,0.683,1.214,1.047,1.501c0.148,0.117,1.004,0.591,1.179,0.771
	c-0.287,0.009-1.245-0.224-1.393-0.235c-0.468-0.035-1.044,0.027-1.82,0.385c-0.082,0.038-0.589,0.37-0.711,0.511
	c-1.099,1.279,0.888,3.349,0.944,3.583c0.049,0.196-0.504,2.199,0.233,3.193c0.096,0.129,0.237,0.21,0.357,0.33
	c0.441,0.44,2.026,0.072,2.354-0.065c0.062-0.026,0.115-0.055,0.172-0.083c0.432-0.215,1.445-1.115,1.445-1.115
	c-0.077,0.269-0.507,0.92-0.526,0.956c-0.255,0.471-0.55,1.169-0.356,2.211c0.032,0.173,0.185,0.863,0.384,1
	c0.379,0.258,0.499,0.567,1.277,0.531c0.122-0.006,0.246-0.005,0.369-0.017c0.907-0.086,1.802-0.483,1.938-0.473
	c0.066,0.005,0.3,0.133,0.622,0.288c0.276,0.133,0.618,0.284,0.982,0.397c0.484,0.151,1.002,0.224,1.447,0.093
	c0.14-0.041,0.273-0.099,0.396-0.186c0.277-0.199,0.502-0.524,0.628-1.036c0.489-1.972-0.387-2.585-0.485-3.262
	c0.501,0.338,0.69,1.201,2.1,1.703c0.149,0.053,1.758,0.559,2.099-0.129c0.068-0.139,0.206-0.233,0.286-0.372
	c0.559-0.98,0.368-2.608,0.437-2.773c0.015-0.036,0.09-0.116,0.196-0.225c0.063-0.064,0.138-0.14,0.22-0.225
	C43.993,29.915,45.404,28.281,43.644,27.145z"/>
<path id="eqxiu.com_2_" fill-rule="evenodd" clip-rule="evenodd" fill="#DC7C8D" d="M40.132,30.065
	c-0.07,0.169,0.276,2.669-1.462,2.28c-1.31-0.292-1.415-0.989-1.79-1.242c0.065,0.446,0.645,0.851,0.32,2.155
	c-0.427,1.729-2.509,0.307-2.693,0.292c-0.18-0.014-2.425,1.085-2.619-0.687c-0.146-1.323,0.457-1.66,0.581-2.093
	c-0.403,0.201-0.6,0.881-1.902,0.978c-1.777,0.133-1.065-2.293-1.108-2.47c-0.044-0.179-1.774-1.958-0.155-2.706
	c1.165-0.538,1.671-0.084,2.124-0.1c-0.315-0.322-1.01-0.322-1.473-1.5c-0.65-1.66,1.854-1.722,2.011-1.818
	c0.155-0.096,1.328-2.304,2.524-0.981c0.846,0.936,0.544,1.55,0.697,1.97c0.209-0.395,0.018-1.047,1.011-1.847
	c1.389-1.117,2.214,1.227,2.354,1.344c0.14,0.118,2.626,0.561,1.718,2.094c-0.663,1.119-1.356,0.999-1.712,1.277
	c0.444,0.075,1.014-0.317,2.127,0.401C42.182,28.378,40.202,29.896,40.132,30.065z"/>
<path id="eqxiu.com_1_" fill-rule="evenodd" clip-rule="evenodd" fill="#F1E5BA" d="M37.515,30.134
	c-1.209,1.432-3.35,1.611-4.781,0.402c-1.431-1.209-1.612-3.35-0.402-4.782c1.209-1.431,3.35-1.611,4.782-0.403
	C38.544,26.562,38.725,28.702,37.515,30.134z"/>
</svg>
