<?xml version="1.0" encoding="utf-8"?>
<!-- Generator: Adobe Illustrator 16.0.0, SVG Export Plug-In . SVG Version: 6.00 Build 0)  -->
<!DOCTYPE svg PUBLIC "-//W3C//DTD SVG 1.1//EN" "http://www.w3.org/Graphics/SVG/1.1/DTD/svg11.dtd">
<svg version="1.1" id="eqxiu.com" xmlns="http://www.w3.org/2000/svg" xmlns:xlink="http://www.w3.org/1999/xlink" x="0px" y="0px"
	 width="57.685px" height="40.603px" viewBox="0 0 57.685 40.603" enable-background="new 0 0 57.685 40.603" xml:space="preserve">
<path id="eqxiu.com_3_" fill-rule="evenodd" clip-rule="evenodd" fill="#8ABEB7" d="M20.814,26.091
	c-0.919,2.73-4.386,7.018-14.896,3.439C13.796,21.707,18.791,24.039,20.814,26.091z M37.122,19.915
	c-3.867,9.471-0.114,12.893,2.348,13.889C41.467,32.056,43.887,27.589,37.122,19.915z"/>
<path id="eqxiu.com_2_" fill-rule="evenodd" clip-rule="evenodd" fill="#98CEC6" d="M57.685,34.908
	c-1.015,2.201-16.151,3.043-27.505-3.01c-6.526-3.479-19.161-14.806-19.75-18.795C29.633,37.585,49.582,37.14,57.685,34.908z
	 M19.183,40.587c10.225,0.32,12.124-4.391,12.197-7.045C29.045,32.281,24.015,31.572,19.183,40.587z M27.721,28.078
	c2.129-1.586,4.895-5.848-1.245-14.031C21.874,23.183,25.345,26.892,27.721,28.078z"/>
<path id="eqxiu.com_1_" fill-rule="evenodd" clip-rule="evenodd" fill="#EEB0C3" d="M14.784,18.784c0,0-10.514,1.852-13.905-4.925
	c-3.391-6.777,3.811-6.797,8.375-5.718c-1.341-5.028,2.1-10.539,6.201-7.039S14.784,18.784,14.784,18.784z"/>
</svg>
